<svg xmlns="http://www.w3.org/2000/svg" width="456.0" height="456.0" viewBox="0 0 456.0 456.0">
<rect width="100%" height="100%" fill="white"/>
<style>.num{font-family:monospace;font-size:10px;text-anchor:middle;dominant-baseline:central}.small{font-family:monospace;font-size:7px;fill:#555;text-anchor:end}</style>
<rect x="20.0" y="20.0" width="32.0" height="32.0" fill="white" stroke="#ccc" stroke-width="1"/>
<text class="num" x="36.0" y="36.0">222</text>
<rect x="52.0" y="20.0" width="32.0" height="32.0" fill="white" stroke="#ccc" stroke-width="1"/>
<text class="num" x="68.0" y="36.0">187</text>
<circle cx="68.0" cy="36.0" r="12.2" fill="none" stroke="#000000" stroke-width="2.5"/>
<text class="small" x="81.0" y="48.0">84</text>
<rect x="84.0" y="20.0" width="32.0" height="32.0" fill="white" stroke="#ccc" stroke-width="1"/>
<text class="num" x="100.0" y="36.0">163</text>
<rect x="116.0" y="20.0" width="32.0" height="32.0" fill="white" stroke="#ccc" stroke-width="1"/>
<text class="num" x="132.0" y="36.0">139</text>
<circle cx="132.0" cy="36.0" r="12.2" fill="none" stroke="#000000" stroke-width="2.5"/>
<text class="small" x="145.0" y="48.0">64</text>
<rect x="148.0" y="20.0" width="32.0" height="32.0" fill="white" stroke="#ccc" stroke-width="1"/>
<text class="num" x="164.0" y="36.0">123</text>
<rect x="180.0" y="20.0" width="32.0" height="32.0" fill="white" stroke="#ccc" stroke-width="1"/>
<text class="num" x="196.0" y="36.0">115</text>
<circle cx="196.0" cy="36.0" r="12.2" fill="none" stroke="#000000" stroke-width="2.5"/>
<text class="small" x="209.0" y="48.0">48</text>
<rect x="212.0" y="20.0" width="32.0" height="32.0" fill="white" stroke="#ccc" stroke-width="1"/>
<text class="num" x="228.0" y="36.0">110</text>
<rect x="244.0" y="20.0" width="32.0" height="32.0" fill="white" stroke="#ccc" stroke-width="1"/>
<text class="num" x="260.0" y="36.0">114</text>
<circle cx="260.0" cy="36.0" r="12.2" fill="none" stroke="#000000" stroke-width="2.5"/>
<text class="small" x="273.0" y="48.0">47</text>
<rect x="276.0" y="20.0" width="32.0" height="32.0" fill="white" stroke="#ccc" stroke-width="1"/>
<text class="num" x="292.0" y="36.0">122</text>
<rect x="308.0" y="20.0" width="32.0" height="32.0" fill="white" stroke="#ccc" stroke-width="1"/>
<text class="num" x="324.0" y="36.0">138</text>
<circle cx="324.0" cy="36.0" r="12.2" fill="none" stroke="#000000" stroke-width="2.5"/>
<text class="small" x="337.0" y="48.0">63</text>
<rect x="340.0" y="20.0" width="32.0" height="32.0" fill="white" stroke="#ccc" stroke-width="1"/>
<text class="num" x="356.0" y="36.0">162</text>
<rect x="372.0" y="20.0" width="32.0" height="32.0" fill="white" stroke="#ccc" stroke-width="1"/>
<text class="num" x="388.0" y="36.0">186</text>
<circle cx="388.0" cy="36.0" r="12.2" fill="none" stroke="#000000" stroke-width="2.5"/>
<text class="small" x="401.0" y="48.0">83</text>
<rect x="404.0" y="20.0" width="32.0" height="32.0" fill="white" stroke="#ccc" stroke-width="1"/>
<text class="num" x="420.0" y="36.0">221</text>
<rect x="20.0" y="52.0" width="32.0" height="32.0" fill="white" stroke="#ccc" stroke-width="1"/>
<text class="num" x="36.0" y="68.0">188</text>
<circle cx="36.0" cy="68.0" r="12.2" fill="none" stroke="#000000" stroke-width="2.5"/>
<text class="small" x="49.0" y="80.0">85</text>
<rect x="52.0" y="52.0" width="32.0" height="32.0" fill="white" stroke="#ccc" stroke-width="1"/>
<text class="num" x="68.0" y="68.0">153</text>
<rect x="84.0" y="52.0" width="32.0" height="32.0" fill="white" stroke="#ccc" stroke-width="1"/>
<text class="num" x="100.0" y="68.0">131</text>
<circle cx="100.0" cy="68.0" r="12.2" fill="none" stroke="#000000" stroke-width="2.5"/>
<text class="small" x="113.0" y="80.0">56</text>
<rect x="116.0" y="52.0" width="32.0" height="32.0" fill="white" stroke="#ccc" stroke-width="1"/>
<text class="num" x="132.0" y="68.0">103</text>
<rect x="148.0" y="52.0" width="32.0" height="32.0" fill="white" stroke="#ccc" stroke-width="1"/>
<text class="num" x="164.0" y="68.0">91</text>
<circle cx="164.0" cy="68.0" r="12.2" fill="none" stroke="#000000" stroke-width="2.5"/>
<text class="small" x="177.0" y="80.0">40</text>
<rect x="180.0" y="52.0" width="32.0" height="32.0" fill="white" stroke="#ccc" stroke-width="1"/>
<text class="num" x="196.0" y="68.0">83</text>
<rect x="212.0" y="52.0" width="32.0" height="32.0" fill="white" stroke="#ccc" stroke-width="1"/>
<text class="num" x="228.0" y="68.0">72</text>
<circle cx="228.0" cy="68.0" r="12.2" fill="none" stroke="#000000" stroke-width="2.5"/>
<text class="small" x="241.0" y="80.0">29</text>
<rect x="244.0" y="52.0" width="32.0" height="32.0" fill="white" stroke="#ccc" stroke-width="1"/>
<text class="num" x="260.0" y="68.0">82</text>
<rect x="276.0" y="52.0" width="32.0" height="32.0" fill="white" stroke="#ccc" stroke-width="1"/>
<text class="num" x="292.0" y="68.0">90</text>
<circle cx="292.0" cy="68.0" r="12.2" fill="none" stroke="#000000" stroke-width="2.5"/>
<text class="small" x="305.0" y="80.0">39</text>
<rect x="308.0" y="52.0" width="32.0" height="32.0" fill="white" stroke="#ccc" stroke-width="1"/>
<text class="num" x="324.0" y="68.0">102</text>
<rect x="340.0" y="52.0" width="32.0" height="32.0" fill="white" stroke="#ccc" stroke-width="1"/>
<text class="num" x="356.0" y="68.0">130</text>
<circle cx="356.0" cy="68.0" r="12.2" fill="none" stroke="#000000" stroke-width="2.5"/>
<text class="small" x="369.0" y="80.0">55</text>
<rect x="372.0" y="52.0" width="32.0" height="32.0" fill="white" stroke="#ccc" stroke-width="1"/>
<text class="num" x="388.0" y="68.0">150</text>
<rect x="404.0" y="52.0" width="32.0" height="32.0" fill="white" stroke="#ccc" stroke-width="1"/>
<text class="num" x="420.0" y="68.0">185</text>
<circle cx="420.0" cy="68.0" r="12.2" fill="none" stroke="#000000" stroke-width="2.5"/>
<text class="small" x="433.0" y="80.0">82</text>
<rect x="20.0" y="84.0" width="32.0" height="32.0" fill="white" stroke="#ccc" stroke-width="1"/>
<text class="num" x="36.0" y="100.0">164</text>
<rect x="52.0" y="84.0" width="32.0" height="32.0" fill="white" stroke="#ccc" stroke-width="1"/>
<text class="num" x="68.0" y="100.0">132</text>
<circle cx="68.0" cy="100.0" r="12.2" fill="none" stroke="#000000" stroke-width="2.5"/>
<text class="small" x="81.0" y="112.0">57</text>
<rect x="84.0" y="84.0" width="32.0" height="32.0" fill="white" stroke="#ccc" stroke-width="1"/>
<text class="num" x="100.0" y="100.0">98</text>
<rect x="116.0" y="84.0" width="32.0" height="32.0" fill="white" stroke="#ccc" stroke-width="1"/>
<text class="num" x="132.0" y="100.0">73</text>
<circle cx="132.0" cy="100.0" r="12.2" fill="none" stroke="#000000" stroke-width="2.5"/>
<text class="small" x="145.0" y="112.0">30</text>
<rect x="148.0" y="84.0" width="32.0" height="32.0" fill="white" stroke="#ccc" stroke-width="1"/>
<text class="num" x="164.0" y="100.0">63</text>
<rect x="180.0" y="84.0" width="32.0" height="32.0" fill="white" stroke="#ccc" stroke-width="1"/>
<text class="num" x="196.0" y="100.0">51</text>
<circle cx="196.0" cy="100.0" r="12.2" fill="none" stroke="#000000" stroke-width="2.5"/>
<text class="small" x="209.0" y="112.0">20</text>
<rect x="212.0" y="84.0" width="32.0" height="32.0" fill="white" stroke="#ccc" stroke-width="1"/>
<text class="num" x="228.0" y="100.0">46</text>
<rect x="244.0" y="84.0" width="32.0" height="32.0" fill="white" stroke="#ccc" stroke-width="1"/>
<text class="num" x="260.0" y="100.0">50</text>
<circle cx="260.0" cy="100.0" r="12.2" fill="none" stroke="#000000" stroke-width="2.5"/>
<text class="small" x="273.0" y="112.0">19</text>
<rect x="276.0" y="84.0" width="32.0" height="32.0" fill="white" stroke="#ccc" stroke-width="1"/>
<text class="num" x="292.0" y="100.0">62</text>
<rect x="308.0" y="84.0" width="32.0" height="32.0" fill="white" stroke="#ccc" stroke-width="1"/>
<text class="num" x="324.0" y="100.0">71</text>
<circle cx="324.0" cy="100.0" r="12.2" fill="none" stroke="#000000" stroke-width="2.5"/>
<text class="small" x="337.0" y="112.0">28</text>
<rect x="340.0" y="84.0" width="32.0" height="32.0" fill="white" stroke="#ccc" stroke-width="1"/>
<text class="num" x="356.0" y="100.0">97</text>
<rect x="372.0" y="84.0" width="32.0" height="32.0" fill="white" stroke="#ccc" stroke-width="1"/>
<text class="num" x="388.0" y="100.0">129</text>
<circle cx="388.0" cy="100.0" r="12.2" fill="none" stroke="#000000" stroke-width="2.5"/>
<text class="small" x="401.0" y="112.0">54</text>
<rect x="404.0" y="84.0" width="32.0" height="32.0" fill="white" stroke="#ccc" stroke-width="1"/>
<text class="num" x="420.0" y="100.0">161</text>
<rect x="20.0" y="116.0" width="32.0" height="32.0" fill="white" stroke="#ccc" stroke-width="1"/>
<text class="num" x="36.0" y="132.0">140</text>
<circle cx="36.0" cy="132.0" r="12.2" fill="none" stroke="#000000" stroke-width="2.5"/>
<text class="small" x="49.0" y="144.0">65</text>
<rect x="52.0" y="116.0" width="32.0" height="32.0" fill="white" stroke="#ccc" stroke-width="1"/>
<text class="num" x="68.0" y="132.0">104</text>
<rect x="84.0" y="116.0" width="32.0" height="32.0" fill="white" stroke="#ccc" stroke-width="1"/>
<text class="num" x="100.0" y="132.0">74</text>
<circle cx="100.0" cy="132.0" r="12.2" fill="none" stroke="#000000" stroke-width="2.5"/>
<text class="small" x="113.0" y="144.0">31</text>
<rect x="116.0" y="116.0" width="32.0" height="32.0" fill="white" stroke="#ccc" stroke-width="1"/>
<text class="num" x="132.0" y="132.0">58</text>
<rect x="148.0" y="116.0" width="32.0" height="32.0" fill="white" stroke="#ccc" stroke-width="1"/>
<text class="num" x="164.0" y="132.0">39</text>
<circle cx="164.0" cy="132.0" r="12.2" fill="none" stroke="#000000" stroke-width="2.5"/>
<text class="small" x="177.0" y="144.0">12</text>
<rect x="180.0" y="116.0" width="32.0" height="32.0" fill="white" stroke="#ccc" stroke-width="1"/>
<text class="num" x="196.0" y="132.0">31</text>
<rect x="212.0" y="116.0" width="32.0" height="32.0" fill="white" stroke="#ccc" stroke-width="1"/>
<text class="num" x="228.0" y="132.0">26</text>
<circle cx="228.0" cy="132.0" r="12.2" fill="none" stroke="#000000" stroke-width="2.5"/>
<text class="small" x="241.0" y="144.0">7</text>
<rect x="244.0" y="116.0" width="32.0" height="32.0" fill="white" stroke="#ccc" stroke-width="1"/>
<text class="num" x="260.0" y="132.0">30</text>
<rect x="276.0" y="116.0" width="32.0" height="32.0" fill="white" stroke="#ccc" stroke-width="1"/>
<text class="num" x="292.0" y="132.0">38</text>
<circle cx="292.0" cy="132.0" r="12.2" fill="none" stroke="#000000" stroke-width="2.5"/>
<text class="small" x="305.0" y="144.0">11</text>
<rect x="308.0" y="116.0" width="32.0" height="32.0" fill="white" stroke="#ccc" stroke-width="1"/>
<text class="num" x="324.0" y="132.0">57</text>
<rect x="340.0" y="116.0" width="32.0" height="32.0" fill="white" stroke="#ccc" stroke-width="1"/>
<text class="num" x="356.0" y="132.0">70</text>
<circle cx="356.0" cy="132.0" r="12.2" fill="none" stroke="#000000" stroke-width="2.5"/>
<text class="small" x="369.0" y="144.0">27</text>
<rect x="372.0" y="116.0" width="32.0" height="32.0" fill="white" stroke="#ccc" stroke-width="1"/>
<text class="num" x="388.0" y="132.0">101</text>
<rect x="404.0" y="116.0" width="32.0" height="32.0" fill="white" stroke="#ccc" stroke-width="1"/>
<text class="num" x="420.0" y="132.0">137</text>
<circle cx="420.0" cy="132.0" r="12.2" fill="none" stroke="#000000" stroke-width="2.5"/>
<text class="small" x="433.0" y="144.0">62</text>
<rect x="20.0" y="148.0" width="32.0" height="32.0" fill="white" stroke="#ccc" stroke-width="1"/>
<text class="num" x="36.0" y="164.0">124</text>
<rect x="52.0" y="148.0" width="32.0" height="32.0" fill="white" stroke="#ccc" stroke-width="1"/>
<text class="num" x="68.0" y="164.0">92</text>
<circle cx="68.0" cy="164.0" r="12.2" fill="none" stroke="#000000" stroke-width="2.5"/>
<text class="small" x="81.0" y="176.0">41</text>
<rect x="84.0" y="148.0" width="32.0" height="32.0" fill="white" stroke="#ccc" stroke-width="1"/>
<text class="num" x="100.0" y="164.0">64</text>
<rect x="116.0" y="148.0" width="32.0" height="32.0" fill="white" stroke="#ccc" stroke-width="1"/>
<text class="num" x="132.0" y="164.0">40</text>
<circle cx="132.0" cy="164.0" r="12.2" fill="none" stroke="#000000" stroke-width="2.5"/>
<text class="small" x="145.0" y="176.0">13</text>
<rect x="148.0" y="148.0" width="32.0" height="32.0" fill="white" stroke="#ccc" stroke-width="1"/>
<text class="num" x="164.0" y="164.0">22</text>
<rect x="180.0" y="148.0" width="32.0" height="32.0" fill="white" stroke="#ccc" stroke-width="1"/>
<text class="num" x="196.0" y="164.0">15</text>
<rect x="212.0" y="148.0" width="32.0" height="32.0" fill="white" stroke="#ccc" stroke-width="1"/>
<text class="num" x="228.0" y="164.0">10</text>
<rect x="244.0" y="148.0" width="32.0" height="32.0" fill="white" stroke="#ccc" stroke-width="1"/>
<text class="num" x="260.0" y="164.0">14</text>
<rect x="276.0" y="148.0" width="32.0" height="32.0" fill="white" stroke="#ccc" stroke-width="1"/>
<text class="num" x="292.0" y="164.0">21</text>
<rect x="308.0" y="148.0" width="32.0" height="32.0" fill="white" stroke="#ccc" stroke-width="1"/>
<text class="num" x="324.0" y="164.0">37</text>
<circle cx="324.0" cy="164.0" r="12.2" fill="none" stroke="#000000" stroke-width="2.5"/>
<text class="small" x="337.0" y="176.0">10</text>
<rect x="340.0" y="148.0" width="32.0" height="32.0" fill="white" stroke="#ccc" stroke-width="1"/>
<text class="num" x="356.0" y="164.0">61</text>
<rect x="372.0" y="148.0" width="32.0" height="32.0" fill="white" stroke="#ccc" stroke-width="1"/>
<text class="num" x="388.0" y="164.0">89</text>
<circle cx="388.0" cy="164.0" r="12.2" fill="none" stroke="#000000" stroke-width="2.5"/>
<text class="small" x="401.0" y="176.0">38</text>
<rect x="404.0" y="148.0" width="32.0" height="32.0" fill="white" stroke="#ccc" stroke-width="1"/>
<text class="num" x="420.0" y="164.0">121</text>
<rect x="20.0" y="180.0" width="32.0" height="32.0" fill="white" stroke="#ccc" stroke-width="1"/>
<text class="num" x="36.0" y="196.0">116</text>
<circle cx="36.0" cy="196.0" r="12.2" fill="none" stroke="#000000" stroke-width="2.5"/>
<text class="small" x="49.0" y="208.0">49</text>
<rect x="52.0" y="180.0" width="32.0" height="32.0" fill="white" stroke="#ccc" stroke-width="1"/>
<text class="num" x="68.0" y="196.0">84</text>
<rect x="84.0" y="180.0" width="32.0" height="32.0" fill="white" stroke="#ccc" stroke-width="1"/>
<text class="num" x="100.0" y="196.0">52</text>
<circle cx="100.0" cy="196.0" r="12.2" fill="none" stroke="#000000" stroke-width="2.5"/>
<text class="small" x="113.0" y="208.0">21</text>
<rect x="116.0" y="180.0" width="32.0" height="32.0" fill="white" stroke="#ccc" stroke-width="1"/>
<text class="num" x="132.0" y="196.0">32</text>
<rect x="148.0" y="180.0" width="32.0" height="32.0" fill="white" stroke="#ccc" stroke-width="1"/>
<text class="num" x="164.0" y="196.0">16</text>
<rect x="180.0" y="180.0" width="32.0" height="32.0" fill="white" stroke="#ccc" stroke-width="1"/>
<text class="num" x="196.0" y="196.0">6</text>
<rect x="212.0" y="180.0" width="32.0" height="32.0" fill="white" stroke="#ccc" stroke-width="1"/>
<text class="num" x="228.0" y="196.0">2</text>
<circle cx="228.0" cy="196.0" r="12.2" fill="none" stroke="#000000" stroke-width="2.5"/>
<text class="small" x="241.0" y="208.0">3</text>
<rect x="244.0" y="180.0" width="32.0" height="32.0" fill="white" stroke="#ccc" stroke-width="1"/>
<text class="num" x="260.0" y="196.0">5</text>
<rect x="276.0" y="180.0" width="32.0" height="32.0" fill="white" stroke="#ccc" stroke-width="1"/>
<text class="num" x="292.0" y="196.0">13</text>
<rect x="308.0" y="180.0" width="32.0" height="32.0" fill="white" stroke="#ccc" stroke-width="1"/>
<text class="num" x="324.0" y="196.0">29</text>
<rect x="340.0" y="180.0" width="32.0" height="32.0" fill="white" stroke="#ccc" stroke-width="1"/>
<text class="num" x="356.0" y="196.0">49</text>
<circle cx="356.0" cy="196.0" r="12.2" fill="none" stroke="#000000" stroke-width="2.5"/>
<text class="small" x="369.0" y="208.0">18</text>
<rect x="372.0" y="180.0" width="32.0" height="32.0" fill="white" stroke="#ccc" stroke-width="1"/>
<text class="num" x="388.0" y="196.0">81</text>
<rect x="404.0" y="180.0" width="32.0" height="32.0" fill="white" stroke="#ccc" stroke-width="1"/>
<text class="num" x="420.0" y="196.0">113</text>
<circle cx="420.0" cy="196.0" r="12.2" fill="none" stroke="#000000" stroke-width="2.5"/>
<text class="small" x="433.0" y="208.0">46</text>
<rect x="20.0" y="212.0" width="32.0" height="32.0" fill="white" stroke="#ccc" stroke-width="1"/>
<text class="num" x="36.0" y="228.0">111</text>
<rect x="52.0" y="212.0" width="32.0" height="32.0" fill="white" stroke="#ccc" stroke-width="1"/>
<text class="num" x="68.0" y="228.0">75</text>
<circle cx="68.0" cy="228.0" r="12.2" fill="none" stroke="#000000" stroke-width="2.5"/>
<text class="small" x="81.0" y="240.0">32</text>
<rect x="84.0" y="212.0" width="32.0" height="32.0" fill="white" stroke="#ccc" stroke-width="1"/>
<text class="num" x="100.0" y="228.0">47</text>
<rect x="116.0" y="212.0" width="32.0" height="32.0" fill="white" stroke="#ccc" stroke-width="1"/>
<text class="num" x="132.0" y="228.0">27</text>
<circle cx="132.0" cy="228.0" r="12.2" fill="none" stroke="#000000" stroke-width="2.5"/>
<text class="small" x="145.0" y="240.0">8</text>
<rect x="148.0" y="212.0" width="32.0" height="32.0" fill="white" stroke="#ccc" stroke-width="1"/>
<text class="num" x="164.0" y="228.0">11</text>
<rect x="180.0" y="212.0" width="32.0" height="32.0" fill="white" stroke="#ccc" stroke-width="1"/>
<text class="num" x="196.0" y="228.0">3</text>
<circle cx="196.0" cy="228.0" r="12.2" fill="none" stroke="#000000" stroke-width="2.5"/>
<text class="small" x="209.0" y="240.0">4</text>
<rect x="212.0" y="212.0" width="32.0" height="32.0" fill="white" stroke="#ccc" stroke-width="1"/>
<text class="num" x="228.0" y="228.0">0</text>
<circle cx="228.0" cy="228.0" r="12.2" fill="none" stroke="#000000" stroke-width="2.5"/>
<text class="small" x="241.0" y="240.0">1</text>
<rect x="244.0" y="212.0" width="32.0" height="32.0" fill="white" stroke="#ccc" stroke-width="1"/>
<text class="num" x="260.0" y="228.0">1</text>
<circle cx="260.0" cy="228.0" r="12.2" fill="none" stroke="#000000" stroke-width="2.5"/>
<text class="small" x="273.0" y="240.0">2</text>
<rect x="276.0" y="212.0" width="32.0" height="32.0" fill="white" stroke="#ccc" stroke-width="1"/>
<text class="num" x="292.0" y="228.0">9</text>
<rect x="308.0" y="212.0" width="32.0" height="32.0" fill="white" stroke="#ccc" stroke-width="1"/>
<text class="num" x="324.0" y="228.0">25</text>
<circle cx="324.0" cy="228.0" r="12.2" fill="none" stroke="#000000" stroke-width="2.5"/>
<text class="small" x="337.0" y="240.0">6</text>
<rect x="340.0" y="212.0" width="32.0" height="32.0" fill="white" stroke="#ccc" stroke-width="1"/>
<text class="num" x="356.0" y="228.0">45</text>
<rect x="372.0" y="212.0" width="32.0" height="32.0" fill="white" stroke="#ccc" stroke-width="1"/>
<text class="num" x="388.0" y="228.0">69</text>
<circle cx="388.0" cy="228.0" r="12.2" fill="none" stroke="#000000" stroke-width="2.5"/>
<text class="small" x="401.0" y="240.0">26</text>
<rect x="404.0" y="212.0" width="32.0" height="32.0" fill="white" stroke="#ccc" stroke-width="1"/>
<text class="num" x="420.0" y="228.0">109</text>
<rect x="20.0" y="244.0" width="32.0" height="32.0" fill="white" stroke="#ccc" stroke-width="1"/>
<text class="num" x="36.0" y="260.0">117</text>
<circle cx="36.0" cy="260.0" r="12.2" fill="none" stroke="#000000" stroke-width="2.5"/>
<text class="small" x="49.0" y="272.0">50</text>
<rect x="52.0" y="244.0" width="32.0" height="32.0" fill="white" stroke="#ccc" stroke-width="1"/>
<text class="num" x="68.0" y="260.0">85</text>
<rect x="84.0" y="244.0" width="32.0" height="32.0" fill="white" stroke="#ccc" stroke-width="1"/>
<text class="num" x="100.0" y="260.0">53</text>
<circle cx="100.0" cy="260.0" r="12.2" fill="none" stroke="#000000" stroke-width="2.5"/>
<text class="small" x="113.0" y="272.0">22</text>
<rect x="116.0" y="244.0" width="32.0" height="32.0" fill="white" stroke="#ccc" stroke-width="1"/>
<text class="num" x="132.0" y="260.0">33</text>
<rect x="148.0" y="244.0" width="32.0" height="32.0" fill="white" stroke="#ccc" stroke-width="1"/>
<text class="num" x="164.0" y="260.0">17</text>
<rect x="180.0" y="244.0" width="32.0" height="32.0" fill="white" stroke="#ccc" stroke-width="1"/>
<text class="num" x="196.0" y="260.0">7</text>
<rect x="212.0" y="244.0" width="32.0" height="32.0" fill="white" stroke="#ccc" stroke-width="1"/>
<text class="num" x="228.0" y="260.0">4</text>
<circle cx="228.0" cy="260.0" r="12.2" fill="none" stroke="#000000" stroke-width="2.5"/>
<text class="small" x="241.0" y="272.0">5</text>
<rect x="244.0" y="244.0" width="32.0" height="32.0" fill="white" stroke="#ccc" stroke-width="1"/>
<text class="num" x="260.0" y="260.0">8</text>
<rect x="276.0" y="244.0" width="32.0" height="32.0" fill="white" stroke="#ccc" stroke-width="1"/>
<text class="num" x="292.0" y="260.0">20</text>
<rect x="308.0" y="244.0" width="32.0" height="32.0" fill="white" stroke="#ccc" stroke-width="1"/>
<text class="num" x="324.0" y="260.0">36</text>
<rect x="340.0" y="244.0" width="32.0" height="32.0" fill="white" stroke="#ccc" stroke-width="1"/>
<text class="num" x="356.0" y="260.0">56</text>
<circle cx="356.0" cy="260.0" r="12.2" fill="none" stroke="#000000" stroke-width="2.5"/>
<text class="small" x="369.0" y="272.0">25</text>
<rect x="372.0" y="244.0" width="32.0" height="32.0" fill="white" stroke="#ccc" stroke-width="1"/>
<text class="num" x="388.0" y="260.0">88</text>
<rect x="404.0" y="244.0" width="32.0" height="32.0" fill="white" stroke="#ccc" stroke-width="1"/>
<text class="num" x="420.0" y="260.0">120</text>
<circle cx="420.0" cy="260.0" r="12.2" fill="none" stroke="#000000" stroke-width="2.5"/>
<text class="small" x="433.0" y="272.0">53</text>
<rect x="20.0" y="276.0" width="32.0" height="32.0" fill="white" stroke="#ccc" stroke-width="1"/>
<text class="num" x="36.0" y="292.0">125</text>
<rect x="52.0" y="276.0" width="32.0" height="32.0" fill="white" stroke="#ccc" stroke-width="1"/>
<text class="num" x="68.0" y="292.0">93</text>
<circle cx="68.0" cy="292.0" r="12.2" fill="none" stroke="#000000" stroke-width="2.5"/>
<text class="small" x="81.0" y="304.0">42</text>
<rect x="84.0" y="276.0" width="32.0" height="32.0" fill="white" stroke="#ccc" stroke-width="1"/>
<text class="num" x="100.0" y="292.0">65</text>
<rect x="116.0" y="276.0" width="32.0" height="32.0" fill="white" stroke="#ccc" stroke-width="1"/>
<text class="num" x="132.0" y="292.0">41</text>
<circle cx="132.0" cy="292.0" r="12.2" fill="none" stroke="#000000" stroke-width="2.5"/>
<text class="small" x="145.0" y="304.0">14</text>
<rect x="148.0" y="276.0" width="32.0" height="32.0" fill="white" stroke="#ccc" stroke-width="1"/>
<text class="num" x="164.0" y="292.0">23</text>
<rect x="180.0" y="276.0" width="32.0" height="32.0" fill="white" stroke="#ccc" stroke-width="1"/>
<text class="num" x="196.0" y="292.0">18</text>
<rect x="212.0" y="276.0" width="32.0" height="32.0" fill="white" stroke="#ccc" stroke-width="1"/>
<text class="num" x="228.0" y="292.0">12</text>
<rect x="244.0" y="276.0" width="32.0" height="32.0" fill="white" stroke="#ccc" stroke-width="1"/>
<text class="num" x="260.0" y="292.0">19</text>
<rect x="276.0" y="276.0" width="32.0" height="32.0" fill="white" stroke="#ccc" stroke-width="1"/>
<text class="num" x="292.0" y="292.0">24</text>
<rect x="308.0" y="276.0" width="32.0" height="32.0" fill="white" stroke="#ccc" stroke-width="1"/>
<text class="num" x="324.0" y="292.0">44</text>
<circle cx="324.0" cy="292.0" r="12.2" fill="none" stroke="#000000" stroke-width="2.5"/>
<text class="small" x="337.0" y="304.0">17</text>
<rect x="340.0" y="276.0" width="32.0" height="32.0" fill="white" stroke="#ccc" stroke-width="1"/>
<text class="num" x="356.0" y="292.0">68</text>
<rect x="372.0" y="276.0" width="32.0" height="32.0" fill="white" stroke="#ccc" stroke-width="1"/>
<text class="num" x="388.0" y="292.0">96</text>
<circle cx="388.0" cy="292.0" r="12.2" fill="none" stroke="#000000" stroke-width="2.5"/>
<text class="small" x="401.0" y="304.0">45</text>
<rect x="404.0" y="276.0" width="32.0" height="32.0" fill="white" stroke="#ccc" stroke-width="1"/>
<text class="num" x="420.0" y="292.0">128</text>
<rect x="20.0" y="308.0" width="32.0" height="32.0" fill="white" stroke="#ccc" stroke-width="1"/>
<text class="num" x="36.0" y="324.0">141</text>
<circle cx="36.0" cy="324.0" r="12.2" fill="none" stroke="#000000" stroke-width="2.5"/>
<text class="small" x="49.0" y="336.0">66</text>
<rect x="52.0" y="308.0" width="32.0" height="32.0" fill="white" stroke="#ccc" stroke-width="1"/>
<text class="num" x="68.0" y="324.0">105</text>
<rect x="84.0" y="308.0" width="32.0" height="32.0" fill="white" stroke="#ccc" stroke-width="1"/>
<text class="num" x="100.0" y="324.0">76</text>
<circle cx="100.0" cy="324.0" r="12.2" fill="none" stroke="#000000" stroke-width="2.5"/>
<text class="small" x="113.0" y="336.0">33</text>
<rect x="116.0" y="308.0" width="32.0" height="32.0" fill="white" stroke="#ccc" stroke-width="1"/>
<text class="num" x="132.0" y="324.0">59</text>
<rect x="148.0" y="308.0" width="32.0" height="32.0" fill="white" stroke="#ccc" stroke-width="1"/>
<text class="num" x="164.0" y="324.0">42</text>
<circle cx="164.0" cy="324.0" r="12.2" fill="none" stroke="#000000" stroke-width="2.5"/>
<text class="small" x="177.0" y="336.0">15</text>
<rect x="180.0" y="308.0" width="32.0" height="32.0" fill="white" stroke="#ccc" stroke-width="1"/>
<text class="num" x="196.0" y="324.0">34</text>
<rect x="212.0" y="308.0" width="32.0" height="32.0" fill="white" stroke="#ccc" stroke-width="1"/>
<text class="num" x="228.0" y="324.0">28</text>
<circle cx="228.0" cy="324.0" r="12.2" fill="none" stroke="#000000" stroke-width="2.5"/>
<text class="small" x="241.0" y="336.0">9</text>
<rect x="244.0" y="308.0" width="32.0" height="32.0" fill="white" stroke="#ccc" stroke-width="1"/>
<text class="num" x="260.0" y="324.0">35</text>
<rect x="276.0" y="308.0" width="32.0" height="32.0" fill="white" stroke="#ccc" stroke-width="1"/>
<text class="num" x="292.0" y="324.0">43</text>
<circle cx="292.0" cy="324.0" r="12.2" fill="none" stroke="#000000" stroke-width="2.5"/>
<text class="small" x="305.0" y="336.0">16</text>
<rect x="308.0" y="308.0" width="32.0" height="32.0" fill="white" stroke="#ccc" stroke-width="1"/>
<text class="num" x="324.0" y="324.0">60</text>
<rect x="340.0" y="308.0" width="32.0" height="32.0" fill="white" stroke="#ccc" stroke-width="1"/>
<text class="num" x="356.0" y="324.0">80</text>
<circle cx="356.0" cy="324.0" r="12.2" fill="none" stroke="#000000" stroke-width="2.5"/>
<text class="small" x="369.0" y="336.0">37</text>
<rect x="372.0" y="308.0" width="32.0" height="32.0" fill="white" stroke="#ccc" stroke-width="1"/>
<text class="num" x="388.0" y="324.0">108</text>
<rect x="404.0" y="308.0" width="32.0" height="32.0" fill="white" stroke="#ccc" stroke-width="1"/>
<text class="num" x="420.0" y="324.0">144</text>
<circle cx="420.0" cy="324.0" r="12.2" fill="none" stroke="#000000" stroke-width="2.5"/>
<text class="small" x="433.0" y="336.0">69</text>
<rect x="20.0" y="340.0" width="32.0" height="32.0" fill="white" stroke="#ccc" stroke-width="1"/>
<text class="num" x="36.0" y="356.0">165</text>
<rect x="52.0" y="340.0" width="32.0" height="32.0" fill="white" stroke="#ccc" stroke-width="1"/>
<text class="num" x="68.0" y="356.0">133</text>
<circle cx="68.0" cy="356.0" r="12.2" fill="none" stroke="#000000" stroke-width="2.5"/>
<text class="small" x="81.0" y="368.0">58</text>
<rect x="84.0" y="340.0" width="32.0" height="32.0" fill="white" stroke="#ccc" stroke-width="1"/>
<text class="num" x="100.0" y="356.0">99</text>
<rect x="116.0" y="340.0" width="32.0" height="32.0" fill="white" stroke="#ccc" stroke-width="1"/>
<text class="num" x="132.0" y="356.0">77</text>
<circle cx="132.0" cy="356.0" r="12.2" fill="none" stroke="#000000" stroke-width="2.5"/>
<text class="small" x="145.0" y="368.0">34</text>
<rect x="148.0" y="340.0" width="32.0" height="32.0" fill="white" stroke="#ccc" stroke-width="1"/>
<text class="num" x="164.0" y="356.0">66</text>
<rect x="180.0" y="340.0" width="32.0" height="32.0" fill="white" stroke="#ccc" stroke-width="1"/>
<text class="num" x="196.0" y="356.0">54</text>
<circle cx="196.0" cy="356.0" r="12.2" fill="none" stroke="#000000" stroke-width="2.5"/>
<text class="small" x="209.0" y="368.0">23</text>
<rect x="212.0" y="340.0" width="32.0" height="32.0" fill="white" stroke="#ccc" stroke-width="1"/>
<text class="num" x="228.0" y="356.0">48</text>
<rect x="244.0" y="340.0" width="32.0" height="32.0" fill="white" stroke="#ccc" stroke-width="1"/>
<text class="num" x="260.0" y="356.0">55</text>
<circle cx="260.0" cy="356.0" r="12.2" fill="none" stroke="#000000" stroke-width="2.5"/>
<text class="small" x="273.0" y="368.0">24</text>
<rect x="276.0" y="340.0" width="32.0" height="32.0" fill="white" stroke="#ccc" stroke-width="1"/>
<text class="num" x="292.0" y="356.0">67</text>
<rect x="308.0" y="340.0" width="32.0" height="32.0" fill="white" stroke="#ccc" stroke-width="1"/>
<text class="num" x="324.0" y="356.0">79</text>
<circle cx="324.0" cy="356.0" r="12.2" fill="none" stroke="#000000" stroke-width="2.5"/>
<text class="small" x="337.0" y="368.0">36</text>
<rect x="340.0" y="340.0" width="32.0" height="32.0" fill="white" stroke="#ccc" stroke-width="1"/>
<text class="num" x="356.0" y="356.0">100</text>
<rect x="372.0" y="340.0" width="32.0" height="32.0" fill="white" stroke="#ccc" stroke-width="1"/>
<text class="num" x="388.0" y="356.0">136</text>
<circle cx="388.0" cy="356.0" r="12.2" fill="none" stroke="#000000" stroke-width="2.5"/>
<text class="small" x="401.0" y="368.0">61</text>
<rect x="404.0" y="340.0" width="32.0" height="32.0" fill="white" stroke="#ccc" stroke-width="1"/>
<text class="num" x="420.0" y="356.0">168</text>
<rect x="20.0" y="372.0" width="32.0" height="32.0" fill="white" stroke="#ccc" stroke-width="1"/>
<text class="num" x="36.0" y="388.0">189</text>
<circle cx="36.0" cy="388.0" r="12.2" fill="none" stroke="#000000" stroke-width="2.5"/>
<text class="small" x="49.0" y="400.0">86</text>
<rect x="52.0" y="372.0" width="32.0" height="32.0" fill="white" stroke="#ccc" stroke-width="1"/>
<text class="num" x="68.0" y="388.0">156</text>
<rect x="84.0" y="372.0" width="32.0" height="32.0" fill="white" stroke="#ccc" stroke-width="1"/>
<text class="num" x="100.0" y="388.0">134</text>
<circle cx="100.0" cy="388.0" r="12.2" fill="none" stroke="#000000" stroke-width="2.5"/>
<text class="small" x="113.0" y="400.0">59</text>
<rect x="116.0" y="372.0" width="32.0" height="32.0" fill="white" stroke="#ccc" stroke-width="1"/>
<text class="num" x="132.0" y="388.0">106</text>
<rect x="148.0" y="372.0" width="32.0" height="32.0" fill="white" stroke="#ccc" stroke-width="1"/>
<text class="num" x="164.0" y="388.0">94</text>
<circle cx="164.0" cy="388.0" r="12.2" fill="none" stroke="#000000" stroke-width="2.5"/>
<text class="small" x="177.0" y="400.0">43</text>
<rect x="180.0" y="372.0" width="32.0" height="32.0" fill="white" stroke="#ccc" stroke-width="1"/>
<text class="num" x="196.0" y="388.0">86</text>
<rect x="212.0" y="372.0" width="32.0" height="32.0" fill="white" stroke="#ccc" stroke-width="1"/>
<text class="num" x="228.0" y="388.0">78</text>
<circle cx="228.0" cy="388.0" r="12.2" fill="none" stroke="#000000" stroke-width="2.5"/>
<text class="small" x="241.0" y="400.0">35</text>
<rect x="244.0" y="372.0" width="32.0" height="32.0" fill="white" stroke="#ccc" stroke-width="1"/>
<text class="num" x="260.0" y="388.0">87</text>
<rect x="276.0" y="372.0" width="32.0" height="32.0" fill="white" stroke="#ccc" stroke-width="1"/>
<text class="num" x="292.0" y="388.0">95</text>
<circle cx="292.0" cy="388.0" r="12.2" fill="none" stroke="#000000" stroke-width="2.5"/>
<text class="small" x="305.0" y="400.0">44</text>
<rect x="308.0" y="372.0" width="32.0" height="32.0" fill="white" stroke="#ccc" stroke-width="1"/>
<text class="num" x="324.0" y="388.0">107</text>
<rect x="340.0" y="372.0" width="32.0" height="32.0" fill="white" stroke="#ccc" stroke-width="1"/>
<text class="num" x="356.0" y="388.0">135</text>
<circle cx="356.0" cy="388.0" r="12.2" fill="none" stroke="#000000" stroke-width="2.5"/>
<text class="small" x="369.0" y="400.0">60</text>
<rect x="372.0" y="372.0" width="32.0" height="32.0" fill="white" stroke="#ccc" stroke-width="1"/>
<text class="num" x="388.0" y="388.0">159</text>
<rect x="404.0" y="372.0" width="32.0" height="32.0" fill="white" stroke="#ccc" stroke-width="1"/>
<text class="num" x="420.0" y="388.0">192</text>
<circle cx="420.0" cy="388.0" r="12.2" fill="none" stroke="#000000" stroke-width="2.5"/>
<text class="small" x="433.0" y="400.0">89</text>
<rect x="20.0" y="404.0" width="32.0" height="32.0" fill="white" stroke="#ccc" stroke-width="1"/>
<text class="num" x="36.0" y="420.0">223</text>
<rect x="52.0" y="404.0" width="32.0" height="32.0" fill="white" stroke="#ccc" stroke-width="1"/>
<text class="num" x="68.0" y="420.0">190</text>
<circle cx="68.0" cy="420.0" r="12.2" fill="none" stroke="#000000" stroke-width="2.5"/>
<text class="small" x="81.0" y="432.0">87</text>
<rect x="84.0" y="404.0" width="32.0" height="32.0" fill="white" stroke="#ccc" stroke-width="1"/>
<text class="num" x="100.0" y="420.0">166</text>
<rect x="116.0" y="404.0" width="32.0" height="32.0" fill="white" stroke="#ccc" stroke-width="1"/>
<text class="num" x="132.0" y="420.0">142</text>
<circle cx="132.0" cy="420.0" r="12.2" fill="none" stroke="#000000" stroke-width="2.5"/>
<text class="small" x="145.0" y="432.0">67</text>
<rect x="148.0" y="404.0" width="32.0" height="32.0" fill="white" stroke="#ccc" stroke-width="1"/>
<text class="num" x="164.0" y="420.0">126</text>
<rect x="180.0" y="404.0" width="32.0" height="32.0" fill="white" stroke="#ccc" stroke-width="1"/>
<text class="num" x="196.0" y="420.0">118</text>
<circle cx="196.0" cy="420.0" r="12.2" fill="none" stroke="#000000" stroke-width="2.5"/>
<text class="small" x="209.0" y="432.0">51</text>
<rect x="212.0" y="404.0" width="32.0" height="32.0" fill="white" stroke="#ccc" stroke-width="1"/>
<text class="num" x="228.0" y="420.0">112</text>
<rect x="244.0" y="404.0" width="32.0" height="32.0" fill="white" stroke="#ccc" stroke-width="1"/>
<text class="num" x="260.0" y="420.0">119</text>
<circle cx="260.0" cy="420.0" r="12.2" fill="none" stroke="#000000" stroke-width="2.5"/>
<text class="small" x="273.0" y="432.0">52</text>
<rect x="276.0" y="404.0" width="32.0" height="32.0" fill="white" stroke="#ccc" stroke-width="1"/>
<text class="num" x="292.0" y="420.0">127</text>
<rect x="308.0" y="404.0" width="32.0" height="32.0" fill="white" stroke="#ccc" stroke-width="1"/>
<text class="num" x="324.0" y="420.0">143</text>
<circle cx="324.0" cy="420.0" r="12.2" fill="none" stroke="#000000" stroke-width="2.5"/>
<text class="small" x="337.0" y="432.0">68</text>
<rect x="340.0" y="404.0" width="32.0" height="32.0" fill="white" stroke="#ccc" stroke-width="1"/>
<text class="num" x="356.0" y="420.0">167</text>
<rect x="372.0" y="404.0" width="32.0" height="32.0" fill="white" stroke="#ccc" stroke-width="1"/>
<text class="num" x="388.0" y="420.0">191</text>
<circle cx="388.0" cy="420.0" r="12.2" fill="none" stroke="#000000" stroke-width="2.5"/>
<text class="small" x="401.0" y="432.0">88</text>
<rect x="404.0" y="404.0" width="32.0" height="32.0" fill="white" stroke="#ccc" stroke-width="1"/>
<text class="num" x="420.0" y="420.0">224</text>
</svg>