<svg xmlns="http://www.w3.org/2000/svg" width="350" height="660" viewBox="0 0 350 660">
<rect x="0" y="0" width="100%" height="100%" fill="white"/>
<style>
text { font-family: "TeX Gyre Pagella", "Liberation Serif", serif; fill: #111; }
.root { font-size: 15px; font-weight: 700; }
.group { font-size: 13px; font-weight: 700; }
.item { font-size: 12.5px; }
.defined { font-weight: 600; }
.tree { stroke: #555; stroke-width: 0.8; fill: none; }
.mystery { stroke: #333; stroke-width: 0.9; stroke-dasharray: 4 3; fill: white; }
.resolved { stroke: #777; stroke-width: 0.7; fill: white; }
</style>
<rect x="18" y="12" width="78" height="25" rx="2" fill="white" stroke="#111" stroke-width="0.9"/>
<text class="root" x="57" y="30" text-anchor="middle">Q3</text>
<path class="tree" d="M30 37 V540"/>
<path class="tree" d="M30 66 H49"/>
<circle cx="49" cy="66" r="2.2" fill="#111"/>
<text class="group" x="58" y="70">reduction</text>
<path class="tree" d="M49 69 H62 V166"/>
<path class="tree" d="M62 91 H77"/>
<circle cx="80" cy="91" r="2.1" fill="#111"/>
<text class="item defined" x="89" y="95">Lower</text>
<path class="tree" d="M62 116 H77"/>
<rect class="mystery" x="78" y="105.5" width="134.75" height="20" rx="2"/>
<text class="item" x="85" y="120">? MatrixFromColumns</text>
<path class="tree" d="M62 141 H77"/>
<rect class="mystery" x="78" y="130.5" width="78.5" height="20" rx="2"/>
<text class="item" x="85" y="145">? Simplify</text>
<path class="tree" d="M62 166 H77"/>
<rect class="mystery" x="78" y="155.5" width="109.75" height="20" rx="2"/>
<text class="item" x="85" y="170">? ExactQuotient</text>
<path class="tree" d="M30 199 H49"/>
<circle cx="49" cy="199" r="2.2" fill="#111"/>
<text class="group" x="58" y="203">recurrence normalization</text>
<path class="tree" d="M49 202 H62 V424"/>
<path class="tree" d="M62 224 H77"/>
<circle cx="80" cy="224" r="2.1" fill="#111"/>
<text class="item defined" x="89" y="228">Cancel3 → Normalize3</text>
<path class="tree" d="M62 249 H77"/>
<rect class="mystery" x="78" y="238.5" width="58" height="20" rx="2"/>
<text class="item" x="85" y="253">? LCM</text>
<path class="tree" d="M62 274 H77"/>
<rect class="mystery" x="78" y="263.5" width="59.75" height="20" rx="2"/>
<text class="item" x="85" y="278">? Denom</text>
<path class="tree" d="M62 299 H77"/>
<rect class="mystery" x="78" y="288.5" width="78.5" height="20" rx="2"/>
<text class="item" x="85" y="303">? Together</text>
<path class="tree" d="M62 324 H77"/>
<rect class="mystery" x="78" y="313.5" width="66.0" height="20" rx="2"/>
<text class="item" x="85" y="328">? Expand</text>
<path class="tree" d="M62 349 H77"/>
<rect class="mystery" x="78" y="338.5" width="109.75" height="20" rx="2"/>
<text class="item" x="85" y="353">? PolynomialGCD</text>
<path class="tree" d="M62 374 H77"/>
<rect class="mystery" x="78" y="363.5" width="58" height="20" rx="2"/>
<text class="item" x="85" y="378">? GCD</text>
<path class="tree" d="M62 399 H77"/>
<rect class="mystery" x="78" y="388.5" width="141.0" height="20" rx="2"/>
<text class="item" x="85" y="403">? LeadingCoefficient</text>
<path class="tree" d="M62 424 H77"/>
<rect class="mystery" x="78" y="413.5" width="66.0" height="20" rx="2"/>
<text class="item" x="85" y="428">? Factor</text>
<path class="tree" d="M30 457 H49"/>
<circle cx="49" cy="457" r="2.2" fill="#111"/>
<text class="group" x="58" y="461">coefficient checks</text>
<path class="tree" d="M49 460 H62 V507"/>
<path class="tree" d="M62 482 H77"/>
<rect class="mystery" x="78" y="471.5" width="58" height="20" rx="2"/>
<text class="item" x="85" y="486">? Sum</text>
<path class="tree" d="M62 507 H77"/>
<rect class="mystery" x="78" y="496.5" width="66.0" height="20" rx="2"/>
<text class="item" x="85" y="511">? Coeffs</text>
<path class="tree" d="M30 540 H49"/>
<circle cx="49" cy="540" r="2.2" fill="#111"/>
<text class="group" x="58" y="544">differential equation</text>
<path class="tree" d="M49 543 H62 V615"/>
<path class="tree" d="M62 565 H77"/>
<circle cx="80" cy="565" r="2.1" fill="#111"/>
<text class="item defined" x="89" y="569">MakeODE → Apply2</text>
<path class="tree" d="M62 590 H77"/>
<rect class="mystery" x="78" y="579.5" width="72.25" height="20" rx="2"/>
<text class="item" x="85" y="594">? Collect</text>
<path class="tree" d="M62 615 H77"/>
<rect class="mystery" x="78" y="604.5" width="91.0" height="20" rx="2"/>
<text class="item" x="85" y="619">? Substitute</text>
</svg>
