<svg xmlns="http://www.w3.org/2000/svg" width="232.5" height="206.0" viewBox="0 0 232.5 206.0">
<rect width="100%" height="100%" fill="white"/>
<polygon points="120.58,100.50 116.25,98.00 111.92,100.50 111.92,105.50 116.25,108.00 120.58,105.50" fill="#000000" stroke="#000000" stroke-width="1"/>
<polygon points="124.91,93.00 120.58,90.50 116.25,93.00 116.25,98.00 120.58,100.50 124.91,98.00" fill="#d11c24" stroke="#d11c24" stroke-width="1"/>
<polygon points="116.25,93.00 111.92,90.50 107.59,93.00 107.59,98.00 111.92,100.50 116.25,98.00" fill="#138a13" stroke="#138a13" stroke-width="1"/>
<polygon points="116.25,108.00 111.92,105.50 107.59,108.00 107.59,113.00 111.92,115.50 116.25,113.00" fill="#138a13" stroke="#138a13" stroke-width="1"/>
<polygon points="133.57,93.00 129.24,90.50 124.91,93.00 124.91,98.00 129.24,100.50 133.57,98.00" fill="#000000" stroke="#000000" stroke-width="1"/>
<polygon points="120.58,85.50 116.25,83.00 111.92,85.50 111.92,90.50 116.25,93.00 120.58,90.50" fill="#000000" stroke="#000000" stroke-width="1"/>
<polygon points="111.92,85.50 107.59,83.00 103.26,85.50 103.26,90.50 107.59,93.00 111.92,90.50" fill="#d11c24" stroke="#d11c24" stroke-width="1"/>
<polygon points="103.26,100.50 98.93,98.00 94.60,100.50 94.60,105.50 98.93,108.00 103.26,105.50" fill="#138a13" stroke="#138a13" stroke-width="1"/>
<polygon points="111.92,115.50 107.59,113.00 103.26,115.50 103.26,120.50 107.59,123.00 111.92,120.50" fill="#c8a000" stroke="#c8a000" stroke-width="1"/>
<polygon points="120.58,115.50 116.25,113.00 111.92,115.50 111.92,120.50 116.25,123.00 120.58,120.50" fill="#000000" stroke="#000000" stroke-width="1"/>
<polygon points="129.24,115.50 124.91,113.00 120.58,115.50 120.58,120.50 124.91,123.00 129.24,120.50" fill="#138a13" stroke="#138a13" stroke-width="1"/>
<polygon points="133.57,108.00 129.24,105.50 124.91,108.00 124.91,113.00 129.24,115.50 133.57,113.00" fill="#000000" stroke="#000000" stroke-width="1"/>
<polygon points="137.90,100.50 133.57,98.00 129.24,100.50 129.24,105.50 133.57,108.00 137.90,105.50" fill="#d11c24" stroke="#d11c24" stroke-width="1"/>
<polygon points="142.23,93.00 137.90,90.50 133.57,93.00 133.57,98.00 137.90,100.50 142.23,98.00" fill="#c8a000" stroke="#c8a000" stroke-width="1"/>
<polygon points="137.90,85.50 133.57,83.00 129.24,85.50 129.24,90.50 133.57,93.00 137.90,90.50" fill="#d11c24" stroke="#d11c24" stroke-width="1"/>
<polygon points="133.57,78.00 129.24,75.50 124.91,78.00 124.91,83.00 129.24,85.50 133.57,83.00" fill="#000000" stroke="#000000" stroke-width="1"/>
<polygon points="124.91,78.00 120.58,75.50 116.25,78.00 116.25,83.00 120.58,85.50 124.91,83.00" fill="#d11c24" stroke="#d11c24" stroke-width="1"/>
<polygon points="116.25,78.00 111.92,75.50 107.59,78.00 107.59,83.00 111.92,85.50 116.25,83.00" fill="#138a13" stroke="#138a13" stroke-width="1"/>
<polygon points="107.59,78.00 103.26,75.50 98.93,78.00 98.93,83.00 103.26,85.50 107.59,83.00" fill="#000000" stroke="#000000" stroke-width="1"/>
<polygon points="103.26,85.50 98.93,83.00 94.60,85.50 94.60,90.50 98.93,93.00 103.26,90.50" fill="#138a13" stroke="#138a13" stroke-width="1"/>
<polygon points="94.60,100.50 90.27,98.00 85.94,100.50 85.94,105.50 90.27,108.00 94.60,105.50" fill="#c8a000" stroke="#c8a000" stroke-width="1"/>
<polygon points="98.93,108.00 94.60,105.50 90.27,108.00 90.27,113.00 94.60,115.50 98.93,113.00" fill="#c8a000" stroke="#c8a000" stroke-width="1"/>
<polygon points="103.26,115.50 98.93,113.00 94.60,115.50 94.60,120.50 98.93,123.00 103.26,120.50" fill="#138a13" stroke="#138a13" stroke-width="1"/>
<polygon points="107.59,123.00 103.26,120.50 98.93,123.00 98.93,128.00 103.26,130.50 107.59,128.00" fill="#000000" stroke="#000000" stroke-width="1"/>
<polygon points="116.25,123.00 111.92,120.50 107.59,123.00 107.59,128.00 111.92,130.50 116.25,128.00" fill="#138a13" stroke="#138a13" stroke-width="1"/>
<polygon points="124.91,123.00 120.58,120.50 116.25,123.00 116.25,128.00 120.58,130.50 124.91,128.00" fill="#c8a000" stroke="#c8a000" stroke-width="1"/>
<polygon points="133.57,123.00 129.24,120.50 124.91,123.00 124.91,128.00 129.24,130.50 133.57,128.00" fill="#000000" stroke="#000000" stroke-width="1"/>
<polygon points="146.56,100.50 142.23,98.00 137.90,100.50 137.90,105.50 142.23,108.00 146.56,105.50" fill="#000000" stroke="#000000" stroke-width="1"/>
<polygon points="150.89,93.00 146.56,90.50 142.23,93.00 142.23,98.00 146.56,100.50 150.89,98.00" fill="#d11c24" stroke="#d11c24" stroke-width="1"/>
<polygon points="146.56,85.50 142.23,83.00 137.90,85.50 137.90,90.50 142.23,93.00 146.56,90.50" fill="#000000" stroke="#000000" stroke-width="1"/>
<polygon points="142.23,78.00 137.90,75.50 133.57,78.00 133.57,83.00 137.90,85.50 142.23,83.00" fill="#c8a000" stroke="#c8a000" stroke-width="1"/>
<polygon points="137.90,70.50 133.57,68.00 129.24,70.50 129.24,75.50 133.57,78.00 137.90,75.50" fill="#d11c24" stroke="#d11c24" stroke-width="1"/>
<polygon points="120.58,70.50 116.25,68.00 111.92,70.50 111.92,75.50 116.25,78.00 120.58,75.50" fill="#000000" stroke="#000000" stroke-width="1"/>
<polygon points="111.92,70.50 107.59,68.00 103.26,70.50 103.26,75.50 107.59,78.00 111.92,75.50" fill="#d11c24" stroke="#d11c24" stroke-width="1"/>
<polygon points="103.26,70.50 98.93,68.00 94.60,70.50 94.60,75.50 98.93,78.00 103.26,75.50" fill="#138a13" stroke="#138a13" stroke-width="1"/>
<polygon points="98.93,78.00 94.60,75.50 90.27,78.00 90.27,83.00 94.60,85.50 98.93,83.00" fill="#d11c24" stroke="#d11c24" stroke-width="1"/>
<polygon points="90.27,93.00 85.94,90.50 81.61,93.00 81.61,98.00 85.94,100.50 90.27,98.00" fill="#138a13" stroke="#138a13" stroke-width="1"/>
<polygon points="85.94,100.50 81.61,98.00 77.28,100.50 77.28,105.50 81.61,108.00 85.94,105.50" fill="#c8a000" stroke="#c8a000" stroke-width="1"/>
<polygon points="90.27,108.00 85.94,105.50 81.61,108.00 81.61,113.00 85.94,115.50 90.27,113.00" fill="#138a13" stroke="#138a13" stroke-width="1"/>
<polygon points="98.93,123.00 94.60,120.50 90.27,123.00 90.27,128.00 94.60,130.50 98.93,128.00" fill="#c8a000" stroke="#c8a000" stroke-width="1"/>
<polygon points="103.26,130.50 98.93,128.00 94.60,130.50 94.60,135.50 98.93,138.00 103.26,135.50" fill="#138a13" stroke="#138a13" stroke-width="1"/>
<polygon points="111.92,130.50 107.59,128.00 103.26,130.50 103.26,135.50 107.59,138.00 111.92,135.50" fill="#c8a000" stroke="#c8a000" stroke-width="1"/>
<polygon points="120.58,130.50 116.25,128.00 111.92,130.50 111.92,135.50 116.25,138.00 120.58,135.50" fill="#000000" stroke="#000000" stroke-width="1"/>
<polygon points="129.24,130.50 124.91,128.00 120.58,130.50 120.58,135.50 124.91,138.00 129.24,135.50" fill="#138a13" stroke="#138a13" stroke-width="1"/>
<polygon points="137.90,130.50 133.57,128.00 129.24,130.50 129.24,135.50 133.57,138.00 137.90,135.50" fill="#c8a000" stroke="#c8a000" stroke-width="1"/>
<polygon points="142.23,123.00 137.90,120.50 133.57,123.00 133.57,128.00 137.90,130.50 142.23,128.00" fill="#138a13" stroke="#138a13" stroke-width="1"/>
<polygon points="146.56,115.50 142.23,113.00 137.90,115.50 137.90,120.50 142.23,123.00 146.56,120.50" fill="#000000" stroke="#000000" stroke-width="1"/>
<polygon points="150.89,108.00 146.56,105.50 142.23,108.00 142.23,113.00 146.56,115.50 150.89,113.00" fill="#d11c24" stroke="#d11c24" stroke-width="1"/>
<polygon points="155.22,100.50 150.89,98.00 146.56,100.50 146.56,105.50 150.89,108.00 155.22,105.50" fill="#c8a000" stroke="#c8a000" stroke-width="1"/>
<polygon points="159.55,93.00 155.22,90.50 150.89,93.00 150.89,98.00 155.22,100.50 159.55,98.00" fill="#000000" stroke="#000000" stroke-width="1"/>
<polygon points="155.22,85.50 150.89,83.00 146.56,85.50 146.56,90.50 150.89,93.00 155.22,90.50" fill="#c8a000" stroke="#c8a000" stroke-width="1"/>
<polygon points="150.89,78.00 146.56,75.50 142.23,78.00 142.23,83.00 146.56,85.50 150.89,83.00" fill="#d11c24" stroke="#d11c24" stroke-width="1"/>
<polygon points="146.56,70.50 142.23,68.00 137.90,70.50 137.90,75.50 142.23,78.00 146.56,75.50" fill="#000000" stroke="#000000" stroke-width="1"/>
<polygon points="142.23,63.00 137.90,60.50 133.57,63.00 133.57,68.00 137.90,70.50 142.23,68.00" fill="#c8a000" stroke="#c8a000" stroke-width="1"/>
<polygon points="133.57,63.00 129.24,60.50 124.91,63.00 124.91,68.00 129.24,70.50 133.57,68.00" fill="#000000" stroke="#000000" stroke-width="1"/>
<polygon points="124.91,63.00 120.58,60.50 116.25,63.00 116.25,68.00 120.58,70.50 124.91,68.00" fill="#d11c24" stroke="#d11c24" stroke-width="1"/>
<polygon points="116.25,63.00 111.92,60.50 107.59,63.00 107.59,68.00 111.92,70.50 116.25,68.00" fill="#138a13" stroke="#138a13" stroke-width="1"/>
<polygon points="107.59,63.00 103.26,60.50 98.93,63.00 98.93,68.00 103.26,70.50 107.59,68.00" fill="#000000" stroke="#000000" stroke-width="1"/>
<polygon points="98.93,63.00 94.60,60.50 90.27,63.00 90.27,68.00 94.60,70.50 98.93,68.00" fill="#d11c24" stroke="#d11c24" stroke-width="1"/>
<polygon points="94.60,70.50 90.27,68.00 85.94,70.50 85.94,75.50 90.27,78.00 94.60,75.50" fill="#000000" stroke="#000000" stroke-width="1"/>
<polygon points="90.27,78.00 85.94,75.50 81.61,78.00 81.61,83.00 85.94,85.50 90.27,83.00" fill="#138a13" stroke="#138a13" stroke-width="1"/>
<polygon points="81.61,93.00 77.28,90.50 72.95,93.00 72.95,98.00 77.28,100.50 81.61,98.00" fill="#c8a000" stroke="#c8a000" stroke-width="1"/>
<polygon points="77.28,100.50 72.95,98.00 68.62,100.50 68.62,105.50 72.95,108.00 77.28,105.50" fill="#138a13" stroke="#138a13" stroke-width="1"/>
<polygon points="81.61,108.00 77.28,105.50 72.95,108.00 72.95,113.00 77.28,115.50 81.61,113.00" fill="#c8a000" stroke="#c8a000" stroke-width="1"/>
<polygon points="85.94,115.50 81.61,113.00 77.28,115.50 77.28,120.50 81.61,123.00 85.94,120.50" fill="#c8a000" stroke="#c8a000" stroke-width="1"/>
<polygon points="90.27,123.00 85.94,120.50 81.61,123.00 81.61,128.00 85.94,130.50 90.27,128.00" fill="#138a13" stroke="#138a13" stroke-width="1"/>
<polygon points="94.60,130.50 90.27,128.00 85.94,130.50 85.94,135.50 90.27,138.00 94.60,135.50" fill="#000000" stroke="#000000" stroke-width="1"/>
<polygon points="98.93,138.00 94.60,135.50 90.27,138.00 90.27,143.00 94.60,145.50 98.93,143.00" fill="#c8a000" stroke="#c8a000" stroke-width="1"/>
<polygon points="107.59,138.00 103.26,135.50 98.93,138.00 98.93,143.00 103.26,145.50 107.59,143.00" fill="#000000" stroke="#000000" stroke-width="1"/>
<polygon points="116.25,138.00 111.92,135.50 107.59,138.00 107.59,143.00 111.92,145.50 116.25,143.00" fill="#138a13" stroke="#138a13" stroke-width="1"/>
<polygon points="124.91,138.00 120.58,135.50 116.25,138.00 116.25,143.00 120.58,145.50 124.91,143.00" fill="#c8a000" stroke="#c8a000" stroke-width="1"/>
<polygon points="142.23,138.00 137.90,135.50 133.57,138.00 133.57,143.00 137.90,145.50 142.23,143.00" fill="#138a13" stroke="#138a13" stroke-width="1"/>
<polygon points="159.55,108.00 155.22,105.50 150.89,108.00 150.89,113.00 155.22,115.50 159.55,113.00" fill="#000000" stroke="#000000" stroke-width="1"/>
<polygon points="163.88,100.50 159.55,98.00 155.22,100.50 155.22,105.50 159.55,108.00 163.88,105.50" fill="#d11c24" stroke="#d11c24" stroke-width="1"/>
<polygon points="168.21,93.00 163.88,90.50 159.55,93.00 159.55,98.00 163.88,100.50 168.21,98.00" fill="#c8a000" stroke="#c8a000" stroke-width="1"/>
<polygon points="163.88,85.50 159.55,83.00 155.22,85.50 155.22,90.50 159.55,93.00 163.88,90.50" fill="#d11c24" stroke="#d11c24" stroke-width="1"/>
<polygon points="159.55,78.00 155.22,75.50 150.89,78.00 150.89,83.00 155.22,85.50 159.55,83.00" fill="#000000" stroke="#000000" stroke-width="1"/>
<polygon points="155.22,70.50 150.89,68.00 146.56,70.50 146.56,75.50 150.89,78.00 155.22,75.50" fill="#c8a000" stroke="#c8a000" stroke-width="1"/>
<polygon points="150.89,63.00 146.56,60.50 142.23,63.00 142.23,68.00 146.56,70.50 150.89,68.00" fill="#d11c24" stroke="#d11c24" stroke-width="1"/>
<polygon points="146.56,55.50 142.23,53.00 137.90,55.50 137.90,60.50 142.23,63.00 146.56,60.50" fill="#000000" stroke="#000000" stroke-width="1"/>
<polygon points="137.90,55.50 133.57,53.00 129.24,55.50 129.24,60.50 133.57,63.00 137.90,60.50" fill="#d11c24" stroke="#d11c24" stroke-width="1"/>
<polygon points="120.58,55.50 116.25,53.00 111.92,55.50 111.92,60.50 116.25,63.00 120.58,60.50" fill="#000000" stroke="#000000" stroke-width="1"/>
<polygon points="111.92,55.50 107.59,53.00 103.26,55.50 103.26,60.50 107.59,63.00 111.92,60.50" fill="#d11c24" stroke="#d11c24" stroke-width="1"/>
<polygon points="103.26,55.50 98.93,53.00 94.60,55.50 94.60,60.50 98.93,63.00 103.26,60.50" fill="#138a13" stroke="#138a13" stroke-width="1"/>
<polygon points="94.60,55.50 90.27,53.00 85.94,55.50 85.94,60.50 90.27,63.00 94.60,60.50" fill="#000000" stroke="#000000" stroke-width="1"/>
<polygon points="90.27,63.00 85.94,60.50 81.61,63.00 81.61,68.00 85.94,70.50 90.27,68.00" fill="#138a13" stroke="#138a13" stroke-width="1"/>
<polygon points="85.94,70.50 81.61,68.00 77.28,70.50 77.28,75.50 81.61,78.00 85.94,75.50" fill="#d11c24" stroke="#d11c24" stroke-width="1"/>
<polygon points="77.28,85.50 72.95,83.00 68.62,85.50 68.62,90.50 72.95,93.00 77.28,90.50" fill="#138a13" stroke="#138a13" stroke-width="1"/>
<polygon points="72.95,93.00 68.62,90.50 64.29,93.00 64.29,98.00 68.62,100.50 72.95,98.00" fill="#c8a000" stroke="#c8a000" stroke-width="1"/>
<polygon points="68.62,100.50 64.29,98.00 59.96,100.50 59.96,105.50 64.29,108.00 68.62,105.50" fill="#c8a000" stroke="#c8a000" stroke-width="1"/>
<polygon points="72.95,108.00 68.62,105.50 64.29,108.00 64.29,113.00 68.62,115.50 72.95,113.00" fill="#c8a000" stroke="#c8a000" stroke-width="1"/>
<polygon points="77.28,115.50 72.95,113.00 68.62,115.50 68.62,120.50 72.95,123.00 77.28,120.50" fill="#138a13" stroke="#138a13" stroke-width="1"/>
<polygon points="85.94,130.50 81.61,128.00 77.28,130.50 77.28,135.50 81.61,138.00 85.94,135.50" fill="#c8a000" stroke="#c8a000" stroke-width="1"/>
<polygon points="90.27,138.00 85.94,135.50 81.61,138.00 81.61,143.00 85.94,145.50 90.27,143.00" fill="#138a13" stroke="#138a13" stroke-width="1"/>
<polygon points="94.60,145.50 90.27,143.00 85.94,145.50 85.94,150.50 90.27,153.00 94.60,150.50" fill="#000000" stroke="#000000" stroke-width="1"/>
<polygon points="103.26,145.50 98.93,143.00 94.60,145.50 94.60,150.50 98.93,153.00 103.26,150.50" fill="#138a13" stroke="#138a13" stroke-width="1"/>
<polygon points="111.92,145.50 107.59,143.00 103.26,145.50 103.26,150.50 107.59,153.00 111.92,150.50" fill="#c8a000" stroke="#c8a000" stroke-width="1"/>
<polygon points="120.58,145.50 116.25,143.00 111.92,145.50 111.92,150.50 116.25,153.00 120.58,150.50" fill="#000000" stroke="#000000" stroke-width="1"/>
<polygon points="129.24,145.50 124.91,143.00 120.58,145.50 120.58,150.50 124.91,153.00 129.24,150.50" fill="#138a13" stroke="#138a13" stroke-width="1"/>
<polygon points="137.90,145.50 133.57,143.00 129.24,145.50 129.24,150.50 133.57,153.00 137.90,150.50" fill="#c8a000" stroke="#c8a000" stroke-width="1"/>
<polygon points="146.56,145.50 142.23,143.00 137.90,145.50 137.90,150.50 142.23,153.00 146.56,150.50" fill="#d11c24" stroke="#d11c24" stroke-width="1"/>
<polygon points="150.89,138.00 146.56,135.50 142.23,138.00 142.23,143.00 146.56,145.50 150.89,143.00" fill="#c8a000" stroke="#c8a000" stroke-width="1"/>
<polygon points="155.22,130.50 150.89,128.00 146.56,130.50 146.56,135.50 150.89,138.00 155.22,135.50" fill="#138a13" stroke="#138a13" stroke-width="1"/>
<polygon points="163.88,115.50 159.55,113.00 155.22,115.50 155.22,120.50 159.55,123.00 163.88,120.50" fill="#d11c24" stroke="#d11c24" stroke-width="1"/>
<polygon points="168.21,108.00 163.88,105.50 159.55,108.00 159.55,113.00 163.88,115.50 168.21,113.00" fill="#c8a000" stroke="#c8a000" stroke-width="1"/>
<polygon points="172.54,100.50 168.21,98.00 163.88,100.50 163.88,105.50 168.21,108.00 172.54,105.50" fill="#000000" stroke="#000000" stroke-width="1"/>
<polygon points="176.87,93.00 172.54,90.50 168.21,93.00 168.21,98.00 172.54,100.50 176.87,98.00" fill="#d11c24" stroke="#d11c24" stroke-width="1"/>
<polygon points="172.54,85.50 168.21,83.00 163.88,85.50 163.88,90.50 168.21,93.00 172.54,90.50" fill="#000000" stroke="#000000" stroke-width="1"/>
<polygon points="168.21,78.00 163.88,75.50 159.55,78.00 159.55,83.00 163.88,85.50 168.21,83.00" fill="#c8a000" stroke="#c8a000" stroke-width="1"/>
<polygon points="163.88,70.50 159.55,68.00 155.22,70.50 155.22,75.50 159.55,78.00 163.88,75.50" fill="#d11c24" stroke="#d11c24" stroke-width="1"/>
<polygon points="159.55,63.00 155.22,60.50 150.89,63.00 150.89,68.00 155.22,70.50 159.55,68.00" fill="#000000" stroke="#000000" stroke-width="1"/>
<polygon points="155.22,55.50 150.89,53.00 146.56,55.50 146.56,60.50 150.89,63.00 155.22,60.50" fill="#c8a000" stroke="#c8a000" stroke-width="1"/>
<polygon points="150.89,48.00 146.56,45.50 142.23,48.00 142.23,53.00 146.56,55.50 150.89,53.00" fill="#d11c24" stroke="#d11c24" stroke-width="1"/>
<polygon points="142.23,48.00 137.90,45.50 133.57,48.00 133.57,53.00 137.90,55.50 142.23,53.00" fill="#c8a000" stroke="#c8a000" stroke-width="1"/>
<polygon points="133.57,48.00 129.24,45.50 124.91,48.00 124.91,53.00 129.24,55.50 133.57,53.00" fill="#000000" stroke="#000000" stroke-width="1"/>
<polygon points="124.91,48.00 120.58,45.50 116.25,48.00 116.25,53.00 120.58,55.50 124.91,53.00" fill="#d11c24" stroke="#d11c24" stroke-width="1"/>
<polygon points="116.25,48.00 111.92,45.50 107.59,48.00 107.59,53.00 111.92,55.50 116.25,53.00" fill="#138a13" stroke="#138a13" stroke-width="1"/>
<polygon points="107.59,48.00 103.26,45.50 98.93,48.00 98.93,53.00 103.26,55.50 107.59,53.00" fill="#000000" stroke="#000000" stroke-width="1"/>
<polygon points="98.93,48.00 94.60,45.50 90.27,48.00 90.27,53.00 94.60,55.50 98.93,53.00" fill="#d11c24" stroke="#d11c24" stroke-width="1"/>
<polygon points="90.27,48.00 85.94,45.50 81.61,48.00 81.61,53.00 85.94,55.50 90.27,53.00" fill="#138a13" stroke="#138a13" stroke-width="1"/>
<polygon points="85.94,55.50 81.61,53.00 77.28,55.50 77.28,60.50 81.61,63.00 85.94,60.50" fill="#d11c24" stroke="#d11c24" stroke-width="1"/>
<polygon points="81.61,63.00 77.28,60.50 72.95,63.00 72.95,68.00 77.28,70.50 81.61,68.00" fill="#000000" stroke="#000000" stroke-width="1"/>
<polygon points="77.28,70.50 72.95,68.00 68.62,70.50 68.62,75.50 72.95,78.00 77.28,75.50" fill="#138a13" stroke="#138a13" stroke-width="1"/>
<polygon points="68.62,85.50 64.29,83.00 59.96,85.50 59.96,90.50 64.29,93.00 68.62,90.50" fill="#c8a000" stroke="#c8a000" stroke-width="1"/>
<polygon points="64.29,93.00 59.96,90.50 55.63,93.00 55.63,98.00 59.96,100.50 64.29,98.00" fill="#138a13" stroke="#138a13" stroke-width="1"/>
<polygon points="59.96,100.50 55.63,98.00 51.30,100.50 51.30,105.50 55.63,108.00 59.96,105.50" fill="#c8a000" stroke="#c8a000" stroke-width="1"/>
<polygon points="64.29,108.00 59.96,105.50 55.63,108.00 55.63,113.00 59.96,115.50 64.29,113.00" fill="#138a13" stroke="#138a13" stroke-width="1"/>
<polygon points="68.62,115.50 64.29,113.00 59.96,115.50 59.96,120.50 64.29,123.00 68.62,120.50" fill="#c8a000" stroke="#c8a000" stroke-width="1"/>
<polygon points="72.95,123.00 68.62,120.50 64.29,123.00 64.29,128.00 68.62,130.50 72.95,128.00" fill="#c8a000" stroke="#c8a000" stroke-width="1"/>
<polygon points="77.28,130.50 72.95,128.00 68.62,130.50 68.62,135.50 72.95,138.00 77.28,135.50" fill="#138a13" stroke="#138a13" stroke-width="1"/>
<polygon points="81.61,138.00 77.28,135.50 72.95,138.00 72.95,143.00 77.28,145.50 81.61,143.00" fill="#000000" stroke="#000000" stroke-width="1"/>
<polygon points="90.27,153.00 85.94,150.50 81.61,153.00 81.61,158.00 85.94,160.50 90.27,158.00" fill="#138a13" stroke="#138a13" stroke-width="1"/>
<polygon points="107.59,153.00 103.26,150.50 98.93,153.00 98.93,158.00 103.26,160.50 107.59,158.00" fill="#000000" stroke="#000000" stroke-width="1"/>
<polygon points="116.25,153.00 111.92,150.50 107.59,153.00 107.59,158.00 111.92,160.50 116.25,158.00" fill="#138a13" stroke="#138a13" stroke-width="1"/>
<polygon points="124.91,153.00 120.58,150.50 116.25,153.00 116.25,158.00 120.58,160.50 124.91,158.00" fill="#c8a000" stroke="#c8a000" stroke-width="1"/>
<polygon points="142.23,153.00 137.90,150.50 133.57,153.00 133.57,158.00 137.90,160.50 142.23,158.00" fill="#138a13" stroke="#138a13" stroke-width="1"/>
<polygon points="150.89,153.00 146.56,150.50 142.23,153.00 142.23,158.00 146.56,160.50 150.89,158.00" fill="#c8a000" stroke="#c8a000" stroke-width="1"/>
<polygon points="155.22,145.50 150.89,143.00 146.56,145.50 146.56,150.50 150.89,153.00 155.22,150.50" fill="#138a13" stroke="#138a13" stroke-width="1"/>
<polygon points="159.55,138.00 155.22,135.50 150.89,138.00 150.89,143.00 155.22,145.50 159.55,143.00" fill="#d11c24" stroke="#d11c24" stroke-width="1"/>
<polygon points="172.54,115.50 168.21,113.00 163.88,115.50 163.88,120.50 168.21,123.00 172.54,120.50" fill="#000000" stroke="#000000" stroke-width="1"/>
<polygon points="176.87,108.00 172.54,105.50 168.21,108.00 168.21,113.00 172.54,115.50 176.87,113.00" fill="#d11c24" stroke="#d11c24" stroke-width="1"/>
<polygon points="181.21,100.50 176.87,98.00 172.54,100.50 172.54,105.50 176.87,108.00 181.21,105.50" fill="#c8a000" stroke="#c8a000" stroke-width="1"/>
<polygon points="185.54,93.00 181.21,90.50 176.87,93.00 176.87,98.00 181.21,100.50 185.54,98.00" fill="#000000" stroke="#000000" stroke-width="1"/>
<polygon points="181.21,85.50 176.87,83.00 172.54,85.50 172.54,90.50 176.87,93.00 181.21,90.50" fill="#c8a000" stroke="#c8a000" stroke-width="1"/>
<polygon points="176.87,78.00 172.54,75.50 168.21,78.00 168.21,83.00 172.54,85.50 176.87,83.00" fill="#d11c24" stroke="#d11c24" stroke-width="1"/>
<polygon points="172.54,70.50 168.21,68.00 163.88,70.50 163.88,75.50 168.21,78.00 172.54,75.50" fill="#000000" stroke="#000000" stroke-width="1"/>
<polygon points="168.21,63.00 163.88,60.50 159.55,63.00 159.55,68.00 163.88,70.50 168.21,68.00" fill="#c8a000" stroke="#c8a000" stroke-width="1"/>
<polygon points="163.88,55.50 159.55,53.00 155.22,55.50 155.22,60.50 159.55,63.00 163.88,60.50" fill="#d11c24" stroke="#d11c24" stroke-width="1"/>
<polygon points="159.55,48.00 155.22,45.50 150.89,48.00 150.89,53.00 155.22,55.50 159.55,53.00" fill="#000000" stroke="#000000" stroke-width="1"/>
<polygon points="155.22,40.50 150.89,38.00 146.56,40.50 146.56,45.50 150.89,48.00 155.22,45.50" fill="#c8a000" stroke="#c8a000" stroke-width="1"/>
<polygon points="146.56,40.50 142.23,38.00 137.90,40.50 137.90,45.50 142.23,48.00 146.56,45.50" fill="#000000" stroke="#000000" stroke-width="1"/>
<polygon points="137.90,40.50 133.57,38.00 129.24,40.50 129.24,45.50 133.57,48.00 137.90,45.50" fill="#d11c24" stroke="#d11c24" stroke-width="1"/>
<polygon points="120.58,40.50 116.25,38.00 111.92,40.50 111.92,45.50 116.25,48.00 120.58,45.50" fill="#000000" stroke="#000000" stroke-width="1"/>
<polygon points="111.92,40.50 107.59,38.00 103.26,40.50 103.26,45.50 107.59,48.00 111.92,45.50" fill="#d11c24" stroke="#d11c24" stroke-width="1"/>
<polygon points="103.26,40.50 98.93,38.00 94.60,40.50 94.60,45.50 98.93,48.00 103.26,45.50" fill="#138a13" stroke="#138a13" stroke-width="1"/>
<polygon points="94.60,40.50 90.27,38.00 85.94,40.50 85.94,45.50 90.27,48.00 94.60,45.50" fill="#000000" stroke="#000000" stroke-width="1"/>
<polygon points="85.94,40.50 81.61,38.00 77.28,40.50 77.28,45.50 81.61,48.00 85.94,45.50" fill="#d11c24" stroke="#d11c24" stroke-width="1"/>
<polygon points="81.61,48.00 77.28,45.50 72.95,48.00 72.95,53.00 77.28,55.50 81.61,53.00" fill="#000000" stroke="#000000" stroke-width="1"/>
<polygon points="77.28,55.50 72.95,53.00 68.62,55.50 68.62,60.50 72.95,63.00 77.28,60.50" fill="#138a13" stroke="#138a13" stroke-width="1"/>
<polygon points="72.95,63.00 68.62,60.50 64.29,63.00 64.29,68.00 68.62,70.50 72.95,68.00" fill="#d11c24" stroke="#d11c24" stroke-width="1"/>
<polygon points="64.29,78.00 59.96,75.50 55.63,78.00 55.63,83.00 59.96,85.50 64.29,83.00" fill="#138a13" stroke="#138a13" stroke-width="1"/>
<polygon points="59.96,85.50 55.63,83.00 51.30,85.50 51.30,90.50 55.63,93.00 59.96,90.50" fill="#c8a000" stroke="#c8a000" stroke-width="1"/>
<polygon points="55.63,93.00 51.30,90.50 46.97,93.00 46.97,98.00 51.30,100.50 55.63,98.00" fill="#c8a000" stroke="#c8a000" stroke-width="1"/>
<polygon points="51.30,100.50 46.97,98.00 42.64,100.50 42.64,105.50 46.97,108.00 51.30,105.50" fill="#138a13" stroke="#138a13" stroke-width="1"/>
<polygon points="55.63,108.00 51.30,105.50 46.97,108.00 46.97,113.00 51.30,115.50 55.63,113.00" fill="#c8a000" stroke="#c8a000" stroke-width="1"/>
<polygon points="59.96,115.50 55.63,113.00 51.30,115.50 51.30,120.50 55.63,123.00 59.96,120.50" fill="#c8a000" stroke="#c8a000" stroke-width="1"/>
<polygon points="64.29,123.00 59.96,120.50 55.63,123.00 55.63,128.00 59.96,130.50 64.29,128.00" fill="#138a13" stroke="#138a13" stroke-width="1"/>
<polygon points="72.95,138.00 68.62,135.50 64.29,138.00 64.29,143.00 68.62,145.50 72.95,143.00" fill="#c8a000" stroke="#c8a000" stroke-width="1"/>
<polygon points="77.28,145.50 72.95,143.00 68.62,145.50 68.62,150.50 72.95,153.00 77.28,150.50" fill="#138a13" stroke="#138a13" stroke-width="1"/>
<polygon points="81.61,153.00 77.28,150.50 72.95,153.00 72.95,158.00 77.28,160.50 81.61,158.00" fill="#000000" stroke="#000000" stroke-width="1"/>
<polygon points="85.94,160.50 81.61,158.00 77.28,160.50 77.28,165.50 81.61,168.00 85.94,165.50" fill="#d11c24" stroke="#d11c24" stroke-width="1"/>
<polygon points="94.60,160.50 90.27,158.00 85.94,160.50 85.94,165.50 90.27,168.00 94.60,165.50" fill="#000000" stroke="#000000" stroke-width="1"/>
<polygon points="103.26,160.50 98.93,158.00 94.60,160.50 94.60,165.50 98.93,168.00 103.26,165.50" fill="#138a13" stroke="#138a13" stroke-width="1"/>
<polygon points="111.92,160.50 107.59,158.00 103.26,160.50 103.26,165.50 107.59,168.00 111.92,165.50" fill="#c8a000" stroke="#c8a000" stroke-width="1"/>
<polygon points="120.58,160.50 116.25,158.00 111.92,160.50 111.92,165.50 116.25,168.00 120.58,165.50" fill="#000000" stroke="#000000" stroke-width="1"/>
<polygon points="129.24,160.50 124.91,158.00 120.58,160.50 120.58,165.50 124.91,168.00 129.24,165.50" fill="#138a13" stroke="#138a13" stroke-width="1"/>
<polygon points="137.90,160.50 133.57,158.00 129.24,160.50 129.24,165.50 133.57,168.00 137.90,165.50" fill="#c8a000" stroke="#c8a000" stroke-width="1"/>
<polygon points="146.56,160.50 142.23,158.00 137.90,160.50 137.90,165.50 142.23,168.00 146.56,165.50" fill="#d11c24" stroke="#d11c24" stroke-width="1"/>
<polygon points="155.22,160.50 150.89,158.00 146.56,160.50 146.56,165.50 150.89,168.00 155.22,165.50" fill="#138a13" stroke="#138a13" stroke-width="1"/>
<polygon points="159.55,153.00 155.22,150.50 150.89,153.00 150.89,158.00 155.22,160.50 159.55,158.00" fill="#d11c24" stroke="#d11c24" stroke-width="1"/>
<polygon points="163.88,145.50 159.55,143.00 155.22,145.50 155.22,150.50 159.55,153.00 163.88,150.50" fill="#c8a000" stroke="#c8a000" stroke-width="1"/>
<polygon points="168.21,138.00 163.88,135.50 159.55,138.00 159.55,143.00 163.88,145.50 168.21,143.00" fill="#138a13" stroke="#138a13" stroke-width="1"/>
<polygon points="176.87,123.00 172.54,120.50 168.21,123.00 168.21,128.00 172.54,130.50 176.87,128.00" fill="#d11c24" stroke="#d11c24" stroke-width="1"/>
<polygon points="181.21,115.50 176.87,113.00 172.54,115.50 172.54,120.50 176.87,123.00 181.21,120.50" fill="#c8a000" stroke="#c8a000" stroke-width="1"/>
<polygon points="185.54,108.00 181.21,105.50 176.87,108.00 176.87,113.00 181.21,115.50 185.54,113.00" fill="#000000" stroke="#000000" stroke-width="1"/>
<polygon points="189.87,100.50 185.54,98.00 181.21,100.50 181.21,105.50 185.54,108.00 189.87,105.50" fill="#d11c24" stroke="#d11c24" stroke-width="1"/>
<polygon points="194.20,93.00 189.87,90.50 185.54,93.00 185.54,98.00 189.87,100.50 194.20,98.00" fill="#c8a000" stroke="#c8a000" stroke-width="1"/>
<polygon points="189.87,85.50 185.54,83.00 181.21,85.50 181.21,90.50 185.54,93.00 189.87,90.50" fill="#d11c24" stroke="#d11c24" stroke-width="1"/>
<polygon points="185.54,78.00 181.21,75.50 176.87,78.00 176.87,83.00 181.21,85.50 185.54,83.00" fill="#000000" stroke="#000000" stroke-width="1"/>
<polygon points="181.21,70.50 176.87,68.00 172.54,70.50 172.54,75.50 176.87,78.00 181.21,75.50" fill="#c8a000" stroke="#c8a000" stroke-width="1"/>
<polygon points="176.87,63.00 172.54,60.50 168.21,63.00 168.21,68.00 172.54,70.50 176.87,68.00" fill="#d11c24" stroke="#d11c24" stroke-width="1"/>
<polygon points="172.54,55.50 168.21,53.00 163.88,55.50 163.88,60.50 168.21,63.00 172.54,60.50" fill="#000000" stroke="#000000" stroke-width="1"/>
<polygon points="168.21,48.00 163.88,45.50 159.55,48.00 159.55,53.00 163.88,55.50 168.21,53.00" fill="#c8a000" stroke="#c8a000" stroke-width="1"/>
<polygon points="163.88,40.50 159.55,38.00 155.22,40.50 155.22,45.50 159.55,48.00 163.88,45.50" fill="#d11c24" stroke="#d11c24" stroke-width="1"/>
<polygon points="159.55,33.00 155.22,30.50 150.89,33.00 150.89,38.00 155.22,40.50 159.55,38.00" fill="#000000" stroke="#000000" stroke-width="1"/>
<polygon points="150.89,33.00 146.56,30.50 142.23,33.00 142.23,38.00 146.56,40.50 150.89,38.00" fill="#d11c24" stroke="#d11c24" stroke-width="1"/>
<polygon points="142.23,33.00 137.90,30.50 133.57,33.00 133.57,38.00 137.90,40.50 142.23,38.00" fill="#c8a000" stroke="#c8a000" stroke-width="1"/>
<polygon points="133.57,33.00 129.24,30.50 124.91,33.00 124.91,38.00 129.24,40.50 133.57,38.00" fill="#000000" stroke="#000000" stroke-width="1"/>
<polygon points="124.91,33.00 120.58,30.50 116.25,33.00 116.25,38.00 120.58,40.50 124.91,38.00" fill="#d11c24" stroke="#d11c24" stroke-width="1"/>
<polygon points="116.25,33.00 111.92,30.50 107.59,33.00 107.59,38.00 111.92,40.50 116.25,38.00" fill="#138a13" stroke="#138a13" stroke-width="1"/>
<polygon points="107.59,33.00 103.26,30.50 98.93,33.00 98.93,38.00 103.26,40.50 107.59,38.00" fill="#000000" stroke="#000000" stroke-width="1"/>
<polygon points="98.93,33.00 94.60,30.50 90.27,33.00 90.27,38.00 94.60,40.50 98.93,38.00" fill="#d11c24" stroke="#d11c24" stroke-width="1"/>
<polygon points="90.27,33.00 85.94,30.50 81.61,33.00 81.61,38.00 85.94,40.50 90.27,38.00" fill="#138a13" stroke="#138a13" stroke-width="1"/>
<polygon points="81.61,33.00 77.28,30.50 72.95,33.00 72.95,38.00 77.28,40.50 81.61,38.00" fill="#000000" stroke="#000000" stroke-width="1"/>
<polygon points="77.28,40.50 72.95,38.00 68.62,40.50 68.62,45.50 72.95,48.00 77.28,45.50" fill="#138a13" stroke="#138a13" stroke-width="1"/>
<polygon points="72.95,48.00 68.62,45.50 64.29,48.00 64.29,53.00 68.62,55.50 72.95,53.00" fill="#d11c24" stroke="#d11c24" stroke-width="1"/>
<polygon points="68.62,55.50 64.29,53.00 59.96,55.50 59.96,60.50 64.29,63.00 68.62,60.50" fill="#000000" stroke="#000000" stroke-width="1"/>
<polygon points="64.29,63.00 59.96,60.50 55.63,63.00 55.63,68.00 59.96,70.50 64.29,68.00" fill="#138a13" stroke="#138a13" stroke-width="1"/>
<polygon points="55.63,78.00 51.30,75.50 46.97,78.00 46.97,83.00 51.30,85.50 55.63,83.00" fill="#c8a000" stroke="#c8a000" stroke-width="1"/>
<polygon points="51.30,85.50 46.97,83.00 42.64,85.50 42.64,90.50 46.97,93.00 51.30,90.50" fill="#138a13" stroke="#138a13" stroke-width="1"/>
<polygon points="46.97,93.00 42.64,90.50 38.31,93.00 38.31,98.00 42.64,100.50 46.97,98.00" fill="#c8a000" stroke="#c8a000" stroke-width="1"/>
<polygon points="42.64,100.50 38.31,98.00 33.98,100.50 33.98,105.50 38.31,108.00 42.64,105.50" fill="#c8a000" stroke="#c8a000" stroke-width="1"/>
<polygon points="46.97,108.00 42.64,105.50 38.31,108.00 38.31,113.00 42.64,115.50 46.97,113.00" fill="#c8a000" stroke="#c8a000" stroke-width="1"/>
<polygon points="51.30,115.50 46.97,113.00 42.64,115.50 42.64,120.50 46.97,123.00 51.30,120.50" fill="#138a13" stroke="#138a13" stroke-width="1"/>
<polygon points="55.63,123.00 51.30,120.50 46.97,123.00 46.97,128.00 51.30,130.50 55.63,128.00" fill="#c8a000" stroke="#c8a000" stroke-width="1"/>
<polygon points="59.96,130.50 55.63,128.00 51.30,130.50 51.30,135.50 55.63,138.00 59.96,135.50" fill="#c8a000" stroke="#c8a000" stroke-width="1"/>
<polygon points="64.29,138.00 59.96,135.50 55.63,138.00 55.63,143.00 59.96,145.50 64.29,143.00" fill="#138a13" stroke="#138a13" stroke-width="1"/>
<polygon points="68.62,145.50 64.29,143.00 59.96,145.50 59.96,150.50 64.29,153.00 68.62,150.50" fill="#000000" stroke="#000000" stroke-width="1"/>
<polygon points="77.28,160.50 72.95,158.00 68.62,160.50 68.62,165.50 72.95,168.00 77.28,165.50" fill="#138a13" stroke="#138a13" stroke-width="1"/>
<polygon points="81.61,168.00 77.28,165.50 72.95,168.00 72.95,173.00 77.28,175.50 81.61,173.00" fill="#000000" stroke="#000000" stroke-width="1"/>
<polygon points="90.27,168.00 85.94,165.50 81.61,168.00 81.61,173.00 85.94,175.50 90.27,173.00" fill="#138a13" stroke="#138a13" stroke-width="1"/>
<polygon points="107.59,168.00 103.26,165.50 98.93,168.00 98.93,173.00 103.26,175.50 107.59,173.00" fill="#000000" stroke="#000000" stroke-width="1"/>
<polygon points="116.25,168.00 111.92,165.50 107.59,168.00 107.59,173.00 111.92,175.50 116.25,173.00" fill="#138a13" stroke="#138a13" stroke-width="1"/>
<polygon points="124.91,168.00 120.58,165.50 116.25,168.00 116.25,173.00 120.58,175.50 124.91,173.00" fill="#c8a000" stroke="#c8a000" stroke-width="1"/>
<polygon points="142.23,168.00 137.90,165.50 133.57,168.00 133.57,173.00 137.90,175.50 142.23,173.00" fill="#138a13" stroke="#138a13" stroke-width="1"/>
<polygon points="150.89,168.00 146.56,165.50 142.23,168.00 142.23,173.00 146.56,175.50 150.89,173.00" fill="#c8a000" stroke="#c8a000" stroke-width="1"/>
<polygon points="159.55,168.00 155.22,165.50 150.89,168.00 150.89,173.00 155.22,175.50 159.55,173.00" fill="#d11c24" stroke="#d11c24" stroke-width="1"/>
<polygon points="163.88,160.50 159.55,158.00 155.22,160.50 155.22,165.50 159.55,168.00 163.88,165.50" fill="#c8a000" stroke="#c8a000" stroke-width="1"/>
<polygon points="168.21,153.00 163.88,150.50 159.55,153.00 159.55,158.00 163.88,160.50 168.21,158.00" fill="#138a13" stroke="#138a13" stroke-width="1"/>
<polygon points="172.54,145.50 168.21,143.00 163.88,145.50 163.88,150.50 168.21,153.00 172.54,150.50" fill="#d11c24" stroke="#d11c24" stroke-width="1"/>
<polygon points="185.54,123.00 181.21,120.50 176.87,123.00 176.87,128.00 181.21,130.50 185.54,128.00" fill="#000000" stroke="#000000" stroke-width="1"/>
<polygon points="189.87,115.50 185.54,113.00 181.21,115.50 181.21,120.50 185.54,123.00 189.87,120.50" fill="#d11c24" stroke="#d11c24" stroke-width="1"/>
<polygon points="194.20,108.00 189.87,105.50 185.54,108.00 185.54,113.00 189.87,115.50 194.20,113.00" fill="#c8a000" stroke="#c8a000" stroke-width="1"/>
<polygon points="198.53,100.50 194.20,98.00 189.87,100.50 189.87,105.50 194.20,108.00 198.53,105.50" fill="#000000" stroke="#000000" stroke-width="1"/>
<polygon points="202.86,93.00 198.53,90.50 194.20,93.00 194.20,98.00 198.53,100.50 202.86,98.00" fill="#d11c24" stroke="#d11c24" stroke-width="1"/>
<polygon points="198.53,85.50 194.20,83.00 189.87,85.50 189.87,90.50 194.20,93.00 198.53,90.50" fill="#000000" stroke="#000000" stroke-width="1"/>
<polygon points="194.20,78.00 189.87,75.50 185.54,78.00 185.54,83.00 189.87,85.50 194.20,83.00" fill="#c8a000" stroke="#c8a000" stroke-width="1"/>
<polygon points="189.87,70.50 185.54,68.00 181.21,70.50 181.21,75.50 185.54,78.00 189.87,75.50" fill="#d11c24" stroke="#d11c24" stroke-width="1"/>
<polygon points="185.54,63.00 181.21,60.50 176.87,63.00 176.87,68.00 181.21,70.50 185.54,68.00" fill="#000000" stroke="#000000" stroke-width="1"/>
<polygon points="181.21,55.50 176.87,53.00 172.54,55.50 172.54,60.50 176.87,63.00 181.21,60.50" fill="#c8a000" stroke="#c8a000" stroke-width="1"/>
<polygon points="176.87,48.00 172.54,45.50 168.21,48.00 168.21,53.00 172.54,55.50 176.87,53.00" fill="#d11c24" stroke="#d11c24" stroke-width="1"/>
<polygon points="172.54,40.50 168.21,38.00 163.88,40.50 163.88,45.50 168.21,48.00 172.54,45.50" fill="#000000" stroke="#000000" stroke-width="1"/>
<polygon points="168.21,33.00 163.88,30.50 159.55,33.00 159.55,38.00 163.88,40.50 168.21,38.00" fill="#c8a000" stroke="#c8a000" stroke-width="1"/>
<polygon points="163.88,25.50 159.55,23.00 155.22,25.50 155.22,30.50 159.55,33.00 163.88,30.50" fill="#d11c24" stroke="#d11c24" stroke-width="1"/>
<polygon points="155.22,25.50 150.89,23.00 146.56,25.50 146.56,30.50 150.89,33.00 155.22,30.50" fill="#c8a000" stroke="#c8a000" stroke-width="1"/>
<polygon points="146.56,25.50 142.23,23.00 137.90,25.50 137.90,30.50 142.23,33.00 146.56,30.50" fill="#000000" stroke="#000000" stroke-width="1"/>
<polygon points="137.90,25.50 133.57,23.00 129.24,25.50 129.24,30.50 133.57,33.00 137.90,30.50" fill="#d11c24" stroke="#d11c24" stroke-width="1"/>
<polygon points="120.58,25.50 116.25,23.00 111.92,25.50 111.92,30.50 116.25,33.00 120.58,30.50" fill="#000000" stroke="#000000" stroke-width="1"/>
<polygon points="111.92,25.50 107.59,23.00 103.26,25.50 103.26,30.50 107.59,33.00 111.92,30.50" fill="#d11c24" stroke="#d11c24" stroke-width="1"/>
<polygon points="103.26,25.50 98.93,23.00 94.60,25.50 94.60,30.50 98.93,33.00 103.26,30.50" fill="#138a13" stroke="#138a13" stroke-width="1"/>
<polygon points="94.60,25.50 90.27,23.00 85.94,25.50 85.94,30.50 90.27,33.00 94.60,30.50" fill="#000000" stroke="#000000" stroke-width="1"/>
<polygon points="85.94,25.50 81.61,23.00 77.28,25.50 77.28,30.50 81.61,33.00 85.94,30.50" fill="#d11c24" stroke="#d11c24" stroke-width="1"/>
<polygon points="77.28,25.50 72.95,23.00 68.62,25.50 68.62,30.50 72.95,33.00 77.28,30.50" fill="#138a13" stroke="#138a13" stroke-width="1"/>
<polygon points="72.95,33.00 68.62,30.50 64.29,33.00 64.29,38.00 68.62,40.50 72.95,38.00" fill="#d11c24" stroke="#d11c24" stroke-width="1"/>
<polygon points="68.62,40.50 64.29,38.00 59.96,40.50 59.96,45.50 64.29,48.00 68.62,45.50" fill="#000000" stroke="#000000" stroke-width="1"/>
<polygon points="64.29,48.00 59.96,45.50 55.63,48.00 55.63,53.00 59.96,55.50 64.29,53.00" fill="#138a13" stroke="#138a13" stroke-width="1"/>
<polygon points="59.96,55.50 55.63,53.00 51.30,55.50 51.30,60.50 55.63,63.00 59.96,60.50" fill="#d11c24" stroke="#d11c24" stroke-width="1"/>
<polygon points="51.30,70.50 46.97,68.00 42.64,70.50 42.64,75.50 46.97,78.00 51.30,75.50" fill="#138a13" stroke="#138a13" stroke-width="1"/>
<polygon points="46.97,78.00 42.64,75.50 38.31,78.00 38.31,83.00 42.64,85.50 46.97,83.00" fill="#c8a000" stroke="#c8a000" stroke-width="1"/>
<polygon points="42.64,85.50 38.31,83.00 33.98,85.50 33.98,90.50 38.31,93.00 42.64,90.50" fill="#c8a000" stroke="#c8a000" stroke-width="1"/>
<polygon points="38.31,93.00 33.98,90.50 29.65,93.00 29.65,98.00 33.98,100.50 38.31,98.00" fill="#138a13" stroke="#138a13" stroke-width="1"/>
<polygon points="33.98,100.50 29.65,98.00 25.32,100.50 25.32,105.50 29.65,108.00 33.98,105.50" fill="#c8a000" stroke="#c8a000" stroke-width="1"/>
<polygon points="38.31,108.00 33.98,105.50 29.65,108.00 29.65,113.00 33.98,115.50 38.31,113.00" fill="#138a13" stroke="#138a13" stroke-width="1"/>
<polygon points="42.64,115.50 38.31,113.00 33.98,115.50 33.98,120.50 38.31,123.00 42.64,120.50" fill="#c8a000" stroke="#c8a000" stroke-width="1"/>
<polygon points="46.97,123.00 42.64,120.50 38.31,123.00 38.31,128.00 42.64,130.50 46.97,128.00" fill="#c8a000" stroke="#c8a000" stroke-width="1"/>
<polygon points="51.30,130.50 46.97,128.00 42.64,130.50 42.64,135.50 46.97,138.00 51.30,135.50" fill="#138a13" stroke="#138a13" stroke-width="1"/>
<polygon points="64.29,153.00 59.96,150.50 55.63,153.00 55.63,158.00 59.96,160.50 64.29,158.00" fill="#138a13" stroke="#138a13" stroke-width="1"/>
<polygon points="68.62,160.50 64.29,158.00 59.96,160.50 59.96,165.50 64.29,168.00 68.62,165.50" fill="#000000" stroke="#000000" stroke-width="1"/>
<polygon points="72.95,168.00 68.62,165.50 64.29,168.00 64.29,173.00 68.62,175.50 72.95,173.00" fill="#d11c24" stroke="#d11c24" stroke-width="1"/>
<polygon points="77.28,175.50 72.95,173.00 68.62,175.50 68.62,180.50 72.95,183.00 77.28,180.50" fill="#138a13" stroke="#138a13" stroke-width="1"/>
<polygon points="85.94,175.50 81.61,173.00 77.28,175.50 77.28,180.50 81.61,183.00 85.94,180.50" fill="#d11c24" stroke="#d11c24" stroke-width="1"/>
<polygon points="94.60,175.50 90.27,173.00 85.94,175.50 85.94,180.50 90.27,183.00 94.60,180.50" fill="#000000" stroke="#000000" stroke-width="1"/>
<polygon points="103.26,175.50 98.93,173.00 94.60,175.50 94.60,180.50 98.93,183.00 103.26,180.50" fill="#138a13" stroke="#138a13" stroke-width="1"/>
<polygon points="111.92,175.50 107.59,173.00 103.26,175.50 103.26,180.50 107.59,183.00 111.92,180.50" fill="#c8a000" stroke="#c8a000" stroke-width="1"/>
<polygon points="120.58,175.50 116.25,173.00 111.92,175.50 111.92,180.50 116.25,183.00 120.58,180.50" fill="#000000" stroke="#000000" stroke-width="1"/>
<polygon points="129.24,175.50 124.91,173.00 120.58,175.50 120.58,180.50 124.91,183.00 129.24,180.50" fill="#138a13" stroke="#138a13" stroke-width="1"/>
<polygon points="137.90,175.50 133.57,173.00 129.24,175.50 129.24,180.50 133.57,183.00 137.90,180.50" fill="#c8a000" stroke="#c8a000" stroke-width="1"/>
<polygon points="146.56,175.50 142.23,173.00 137.90,175.50 137.90,180.50 142.23,183.00 146.56,180.50" fill="#d11c24" stroke="#d11c24" stroke-width="1"/>
<polygon points="155.22,175.50 150.89,173.00 146.56,175.50 146.56,180.50 150.89,183.00 155.22,180.50" fill="#138a13" stroke="#138a13" stroke-width="1"/>
<polygon points="163.88,175.50 159.55,173.00 155.22,175.50 155.22,180.50 159.55,183.00 163.88,180.50" fill="#c8a000" stroke="#c8a000" stroke-width="1"/>
<polygon points="168.21,168.00 163.88,165.50 159.55,168.00 159.55,173.00 163.88,175.50 168.21,173.00" fill="#138a13" stroke="#138a13" stroke-width="1"/>
<polygon points="172.54,160.50 168.21,158.00 163.88,160.50 163.88,165.50 168.21,168.00 172.54,165.50" fill="#d11c24" stroke="#d11c24" stroke-width="1"/>
<polygon points="176.87,153.00 172.54,150.50 168.21,153.00 168.21,158.00 172.54,160.50 176.87,158.00" fill="#c8a000" stroke="#c8a000" stroke-width="1"/>
<polygon points="181.21,145.50 176.87,143.00 172.54,145.50 172.54,150.50 176.87,153.00 181.21,150.50" fill="#138a13" stroke="#138a13" stroke-width="1"/>
<polygon points="189.87,130.50 185.54,128.00 181.21,130.50 181.21,135.50 185.54,138.00 189.87,135.50" fill="#d11c24" stroke="#d11c24" stroke-width="1"/>
<polygon points="194.20,123.00 189.87,120.50 185.54,123.00 185.54,128.00 189.87,130.50 194.20,128.00" fill="#c8a000" stroke="#c8a000" stroke-width="1"/>
<polygon points="198.53,115.50 194.20,113.00 189.87,115.50 189.87,120.50 194.20,123.00 198.53,120.50" fill="#000000" stroke="#000000" stroke-width="1"/>
<polygon points="202.86,108.00 198.53,105.50 194.20,108.00 194.20,113.00 198.53,115.50 202.86,113.00" fill="#d11c24" stroke="#d11c24" stroke-width="1"/>
<polygon points="207.19,100.50 202.86,98.00 198.53,100.50 198.53,105.50 202.86,108.00 207.19,105.50" fill="#c8a000" stroke="#c8a000" stroke-width="1"/>
<polygon points="211.52,93.00 207.19,90.50 202.86,93.00 202.86,98.00 207.19,100.50 211.52,98.00" fill="#000000" stroke="#000000" stroke-width="1"/>
<polygon points="207.19,85.50 202.86,83.00 198.53,85.50 198.53,90.50 202.86,93.00 207.19,90.50" fill="#c8a000" stroke="#c8a000" stroke-width="1"/>
<polygon points="202.86,78.00 198.53,75.50 194.20,78.00 194.20,83.00 198.53,85.50 202.86,83.00" fill="#d11c24" stroke="#d11c24" stroke-width="1"/>
<polygon points="198.53,70.50 194.20,68.00 189.87,70.50 189.87,75.50 194.20,78.00 198.53,75.50" fill="#000000" stroke="#000000" stroke-width="1"/>
<polygon points="194.20,63.00 189.87,60.50 185.54,63.00 185.54,68.00 189.87,70.50 194.20,68.00" fill="#c8a000" stroke="#c8a000" stroke-width="1"/>
<polygon points="189.87,55.50 185.54,53.00 181.21,55.50 181.21,60.50 185.54,63.00 189.87,60.50" fill="#d11c24" stroke="#d11c24" stroke-width="1"/>
<polygon points="185.54,48.00 181.21,45.50 176.87,48.00 176.87,53.00 181.21,55.50 185.54,53.00" fill="#000000" stroke="#000000" stroke-width="1"/>
<polygon points="181.21,40.50 176.87,38.00 172.54,40.50 172.54,45.50 176.87,48.00 181.21,45.50" fill="#c8a000" stroke="#c8a000" stroke-width="1"/>
<polygon points="176.87,33.00 172.54,30.50 168.21,33.00 168.21,38.00 172.54,40.50 176.87,38.00" fill="#d11c24" stroke="#d11c24" stroke-width="1"/>
<polygon points="172.54,25.50 168.21,23.00 163.88,25.50 163.88,30.50 168.21,33.00 172.54,30.50" fill="#000000" stroke="#000000" stroke-width="1"/>
<polygon points="168.21,18.00 163.88,15.50 159.55,18.00 159.55,23.00 163.88,25.50 168.21,23.00" fill="#c8a000" stroke="#c8a000" stroke-width="1"/>
<polygon points="159.55,18.00 155.22,15.50 150.89,18.00 150.89,23.00 155.22,25.50 159.55,23.00" fill="#000000" stroke="#000000" stroke-width="1"/>
<polygon points="150.89,18.00 146.56,15.50 142.23,18.00 142.23,23.00 146.56,25.50 150.89,23.00" fill="#d11c24" stroke="#d11c24" stroke-width="1"/>
<polygon points="142.23,18.00 137.90,15.50 133.57,18.00 133.57,23.00 137.90,25.50 142.23,23.00" fill="#c8a000" stroke="#c8a000" stroke-width="1"/>
<polygon points="133.57,18.00 129.24,15.50 124.91,18.00 124.91,23.00 129.24,25.50 133.57,23.00" fill="#000000" stroke="#000000" stroke-width="1"/>
<polygon points="124.91,18.00 120.58,15.50 116.25,18.00 116.25,23.00 120.58,25.50 124.91,23.00" fill="#d11c24" stroke="#d11c24" stroke-width="1"/>
<polygon points="116.25,18.00 111.92,15.50 107.59,18.00 107.59,23.00 111.92,25.50 116.25,23.00" fill="#138a13" stroke="#138a13" stroke-width="1"/>
<polygon points="107.59,18.00 103.26,15.50 98.93,18.00 98.93,23.00 103.26,25.50 107.59,23.00" fill="#000000" stroke="#000000" stroke-width="1"/>
<polygon points="98.93,18.00 94.60,15.50 90.27,18.00 90.27,23.00 94.60,25.50 98.93,23.00" fill="#d11c24" stroke="#d11c24" stroke-width="1"/>
<polygon points="90.27,18.00 85.94,15.50 81.61,18.00 81.61,23.00 85.94,25.50 90.27,23.00" fill="#138a13" stroke="#138a13" stroke-width="1"/>
<polygon points="81.61,18.00 77.28,15.50 72.95,18.00 72.95,23.00 77.28,25.50 81.61,23.00" fill="#000000" stroke="#000000" stroke-width="1"/>
<polygon points="72.95,18.00 68.62,15.50 64.29,18.00 64.29,23.00 68.62,25.50 72.95,23.00" fill="#d11c24" stroke="#d11c24" stroke-width="1"/>
<polygon points="68.62,25.50 64.29,23.00 59.96,25.50 59.96,30.50 64.29,33.00 68.62,30.50" fill="#000000" stroke="#000000" stroke-width="1"/>
<polygon points="64.29,33.00 59.96,30.50 55.63,33.00 55.63,38.00 59.96,40.50 64.29,38.00" fill="#138a13" stroke="#138a13" stroke-width="1"/>
<polygon points="59.96,40.50 55.63,38.00 51.30,40.50 51.30,45.50 55.63,48.00 59.96,45.50" fill="#d11c24" stroke="#d11c24" stroke-width="1"/>
<polygon points="55.63,48.00 51.30,45.50 46.97,48.00 46.97,53.00 51.30,55.50 55.63,53.00" fill="#000000" stroke="#000000" stroke-width="1"/>
<polygon points="51.30,55.50 46.97,53.00 42.64,55.50 42.64,60.50 46.97,63.00 51.30,60.50" fill="#138a13" stroke="#138a13" stroke-width="1"/>
<polygon points="42.64,70.50 38.31,68.00 33.98,70.50 33.98,75.50 38.31,78.00 42.64,75.50" fill="#c8a000" stroke="#c8a000" stroke-width="1"/>
<polygon points="38.31,78.00 33.98,75.50 29.65,78.00 29.65,83.00 33.98,85.50 38.31,83.00" fill="#138a13" stroke="#138a13" stroke-width="1"/>
<polygon points="33.98,85.50 29.65,83.00 25.32,85.50 25.32,90.50 29.65,93.00 33.98,90.50" fill="#c8a000" stroke="#c8a000" stroke-width="1"/>
<polygon points="29.65,93.00 25.32,90.50 20.99,93.00 20.99,98.00 25.32,100.50 29.65,98.00" fill="#c8a000" stroke="#c8a000" stroke-width="1"/>
<polygon points="25.32,100.50 20.99,98.00 16.66,100.50 16.66,105.50 20.99,108.00 25.32,105.50" fill="#138a13" stroke="#138a13" stroke-width="1"/>
<polygon points="29.65,108.00 25.32,105.50 20.99,108.00 20.99,113.00 25.32,115.50 29.65,113.00" fill="#c8a000" stroke="#c8a000" stroke-width="1"/>
<polygon points="33.98,115.50 29.65,113.00 25.32,115.50 25.32,120.50 29.65,123.00 33.98,120.50" fill="#c8a000" stroke="#c8a000" stroke-width="1"/>
<polygon points="38.31,123.00 33.98,120.50 29.65,123.00 29.65,128.00 33.98,130.50 38.31,128.00" fill="#138a13" stroke="#138a13" stroke-width="1"/>
<polygon points="42.64,130.50 38.31,128.00 33.98,130.50 33.98,135.50 38.31,138.00 42.64,135.50" fill="#c8a000" stroke="#c8a000" stroke-width="1"/>
<polygon points="51.30,145.50 46.97,143.00 42.64,145.50 42.64,150.50 46.97,153.00 51.30,150.50" fill="#138a13" stroke="#138a13" stroke-width="1"/>
<polygon points="55.63,153.00 51.30,150.50 46.97,153.00 46.97,158.00 51.30,160.50 55.63,158.00" fill="#000000" stroke="#000000" stroke-width="1"/>
<polygon points="59.96,160.50 55.63,158.00 51.30,160.50 51.30,165.50 55.63,168.00 59.96,165.50" fill="#d11c24" stroke="#d11c24" stroke-width="1"/>
<polygon points="64.29,168.00 59.96,165.50 55.63,168.00 55.63,173.00 59.96,175.50 64.29,173.00" fill="#138a13" stroke="#138a13" stroke-width="1"/>
<polygon points="68.62,175.50 64.29,173.00 59.96,175.50 59.96,180.50 64.29,183.00 68.62,180.50" fill="#000000" stroke="#000000" stroke-width="1"/>
<polygon points="72.95,183.00 68.62,180.50 64.29,183.00 64.29,188.00 68.62,190.50 72.95,188.00" fill="#d11c24" stroke="#d11c24" stroke-width="1"/>
<polygon points="81.61,183.00 77.28,180.50 72.95,183.00 72.95,188.00 77.28,190.50 81.61,188.00" fill="#000000" stroke="#000000" stroke-width="1"/>
<polygon points="90.27,183.00 85.94,180.50 81.61,183.00 81.61,188.00 85.94,190.50 90.27,188.00" fill="#138a13" stroke="#138a13" stroke-width="1"/>
<polygon points="107.59,183.00 103.26,180.50 98.93,183.00 98.93,188.00 103.26,190.50 107.59,188.00" fill="#000000" stroke="#000000" stroke-width="1"/>
<polygon points="116.25,183.00 111.92,180.50 107.59,183.00 107.59,188.00 111.92,190.50 116.25,188.00" fill="#138a13" stroke="#138a13" stroke-width="1"/>
<polygon points="124.91,183.00 120.58,180.50 116.25,183.00 116.25,188.00 120.58,190.50 124.91,188.00" fill="#c8a000" stroke="#c8a000" stroke-width="1"/>
<polygon points="142.23,183.00 137.90,180.50 133.57,183.00 133.57,188.00 137.90,190.50 142.23,188.00" fill="#138a13" stroke="#138a13" stroke-width="1"/>
<polygon points="150.89,183.00 146.56,180.50 142.23,183.00 142.23,188.00 146.56,190.50 150.89,188.00" fill="#c8a000" stroke="#c8a000" stroke-width="1"/>
<polygon points="159.55,183.00 155.22,180.50 150.89,183.00 150.89,188.00 155.22,190.50 159.55,188.00" fill="#d11c24" stroke="#d11c24" stroke-width="1"/>
<polygon points="168.21,183.00 163.88,180.50 159.55,183.00 159.55,188.00 163.88,190.50 168.21,188.00" fill="#138a13" stroke="#138a13" stroke-width="1"/>
<polygon points="172.54,175.50 168.21,173.00 163.88,175.50 163.88,180.50 168.21,183.00 172.54,180.50" fill="#d11c24" stroke="#d11c24" stroke-width="1"/>
<polygon points="176.87,168.00 172.54,165.50 168.21,168.00 168.21,173.00 172.54,175.50 176.87,173.00" fill="#c8a000" stroke="#c8a000" stroke-width="1"/>
<polygon points="181.21,160.50 176.87,158.00 172.54,160.50 172.54,165.50 176.87,168.00 181.21,165.50" fill="#138a13" stroke="#138a13" stroke-width="1"/>
<polygon points="185.54,153.00 181.21,150.50 176.87,153.00 176.87,158.00 181.21,160.50 185.54,158.00" fill="#d11c24" stroke="#d11c24" stroke-width="1"/>
<polygon points="198.53,130.50 194.20,128.00 189.87,130.50 189.87,135.50 194.20,138.00 198.53,135.50" fill="#000000" stroke="#000000" stroke-width="1"/>
<polygon points="202.86,123.00 198.53,120.50 194.20,123.00 194.20,128.00 198.53,130.50 202.86,128.00" fill="#d11c24" stroke="#d11c24" stroke-width="1"/>
<polygon points="207.19,115.50 202.86,113.00 198.53,115.50 198.53,120.50 202.86,123.00 207.19,120.50" fill="#c8a000" stroke="#c8a000" stroke-width="1"/>
<polygon points="211.52,108.00 207.19,105.50 202.86,108.00 202.86,113.00 207.19,115.50 211.52,113.00" fill="#000000" stroke="#000000" stroke-width="1"/>
<polygon points="215.85,100.50 211.52,98.00 207.19,100.50 207.19,105.50 211.52,108.00 215.85,105.50" fill="#d11c24" stroke="#d11c24" stroke-width="1"/>
<polygon points="220.18,93.00 215.85,90.50 211.52,93.00 211.52,98.00 215.85,100.50 220.18,98.00" fill="#c8a000" stroke="#c8a000" stroke-width="1"/>
<polygon points="215.85,85.50 211.52,83.00 207.19,85.50 207.19,90.50 211.52,93.00 215.85,90.50" fill="#d11c24" stroke="#d11c24" stroke-width="1"/>
<polygon points="211.52,78.00 207.19,75.50 202.86,78.00 202.86,83.00 207.19,85.50 211.52,83.00" fill="#000000" stroke="#000000" stroke-width="1"/>
<polygon points="207.19,70.50 202.86,68.00 198.53,70.50 198.53,75.50 202.86,78.00 207.19,75.50" fill="#c8a000" stroke="#c8a000" stroke-width="1"/>
<polygon points="202.86,63.00 198.53,60.50 194.20,63.00 194.20,68.00 198.53,70.50 202.86,68.00" fill="#d11c24" stroke="#d11c24" stroke-width="1"/>
<polygon points="198.53,55.50 194.20,53.00 189.87,55.50 189.87,60.50 194.20,63.00 198.53,60.50" fill="#000000" stroke="#000000" stroke-width="1"/>
<polygon points="194.20,48.00 189.87,45.50 185.54,48.00 185.54,53.00 189.87,55.50 194.20,53.00" fill="#c8a000" stroke="#c8a000" stroke-width="1"/>
<polygon points="189.87,40.50 185.54,38.00 181.21,40.50 181.21,45.50 185.54,48.00 189.87,45.50" fill="#d11c24" stroke="#d11c24" stroke-width="1"/>
<polygon points="185.54,33.00 181.21,30.50 176.87,33.00 176.87,38.00 181.21,40.50 185.54,38.00" fill="#000000" stroke="#000000" stroke-width="1"/>
<polygon points="181.21,25.50 176.87,23.00 172.54,25.50 172.54,30.50 176.87,33.00 181.21,30.50" fill="#c8a000" stroke="#c8a000" stroke-width="1"/>
<polygon points="176.87,18.00 172.54,15.50 168.21,18.00 168.21,23.00 172.54,25.50 176.87,23.00" fill="#d11c24" stroke="#d11c24" stroke-width="1"/>
<polygon points="172.54,10.50 168.21,8.00 163.88,10.50 163.88,15.50 168.21,18.00 172.54,15.50" fill="#000000" stroke="#000000" stroke-width="1"/>
<polygon points="163.88,10.50 159.55,8.00 155.22,10.50 155.22,15.50 159.55,18.00 163.88,15.50" fill="#d11c24" stroke="#d11c24" stroke-width="1"/>
<polygon points="155.22,10.50 150.89,8.00 146.56,10.50 146.56,15.50 150.89,18.00 155.22,15.50" fill="#c8a000" stroke="#c8a000" stroke-width="1"/>
<polygon points="146.56,10.50 142.23,8.00 137.90,10.50 137.90,15.50 142.23,18.00 146.56,15.50" fill="#000000" stroke="#000000" stroke-width="1"/>
<polygon points="137.90,10.50 133.57,8.00 129.24,10.50 129.24,15.50 133.57,18.00 137.90,15.50" fill="#d11c24" stroke="#d11c24" stroke-width="1"/>
<polygon points="120.58,10.50 116.25,8.00 111.92,10.50 111.92,15.50 116.25,18.00 120.58,15.50" fill="#000000" stroke="#000000" stroke-width="1"/>
<polygon points="111.92,10.50 107.59,8.00 103.26,10.50 103.26,15.50 107.59,18.00 111.92,15.50" fill="#d11c24" stroke="#d11c24" stroke-width="1"/>
<polygon points="103.26,10.50 98.93,8.00 94.60,10.50 94.60,15.50 98.93,18.00 103.26,15.50" fill="#138a13" stroke="#138a13" stroke-width="1"/>
<polygon points="94.60,10.50 90.27,8.00 85.94,10.50 85.94,15.50 90.27,18.00 94.60,15.50" fill="#000000" stroke="#000000" stroke-width="1"/>
<polygon points="85.94,10.50 81.61,8.00 77.28,10.50 77.28,15.50 81.61,18.00 85.94,15.50" fill="#d11c24" stroke="#d11c24" stroke-width="1"/>
<polygon points="77.28,10.50 72.95,8.00 68.62,10.50 68.62,15.50 72.95,18.00 77.28,15.50" fill="#138a13" stroke="#138a13" stroke-width="1"/>
<polygon points="68.62,10.50 64.29,8.00 59.96,10.50 59.96,15.50 64.29,18.00 68.62,15.50" fill="#000000" stroke="#000000" stroke-width="1"/>
<polygon points="64.29,18.00 59.96,15.50 55.63,18.00 55.63,23.00 59.96,25.50 64.29,23.00" fill="#138a13" stroke="#138a13" stroke-width="1"/>
<polygon points="59.96,25.50 55.63,23.00 51.30,25.50 51.30,30.50 55.63,33.00 59.96,30.50" fill="#d11c24" stroke="#d11c24" stroke-width="1"/>
<polygon points="55.63,33.00 51.30,30.50 46.97,33.00 46.97,38.00 51.30,40.50 55.63,38.00" fill="#000000" stroke="#000000" stroke-width="1"/>
<polygon points="51.30,40.50 46.97,38.00 42.64,40.50 42.64,45.50 46.97,48.00 51.30,45.50" fill="#138a13" stroke="#138a13" stroke-width="1"/>
<polygon points="46.97,48.00 42.64,45.50 38.31,48.00 38.31,53.00 42.64,55.50 46.97,53.00" fill="#d11c24" stroke="#d11c24" stroke-width="1"/>
<polygon points="38.31,63.00 33.98,60.50 29.65,63.00 29.65,68.00 33.98,70.50 38.31,68.00" fill="#138a13" stroke="#138a13" stroke-width="1"/>
<polygon points="33.98,70.50 29.65,68.00 25.32,70.50 25.32,75.50 29.65,78.00 33.98,75.50" fill="#c8a000" stroke="#c8a000" stroke-width="1"/>
<polygon points="29.65,78.00 25.32,75.50 20.99,78.00 20.99,83.00 25.32,85.50 29.65,83.00" fill="#c8a000" stroke="#c8a000" stroke-width="1"/>
<polygon points="25.32,85.50 20.99,83.00 16.66,85.50 16.66,90.50 20.99,93.00 25.32,90.50" fill="#138a13" stroke="#138a13" stroke-width="1"/>
<polygon points="20.99,93.00 16.66,90.50 12.33,93.00 12.33,98.00 16.66,100.50 20.99,98.00" fill="#c8a000" stroke="#c8a000" stroke-width="1"/>
<polygon points="16.66,100.50 12.33,98.00 8.00,100.50 8.00,105.50 12.33,108.00 16.66,105.50" fill="#c8a000" stroke="#c8a000" stroke-width="1"/>
<polygon points="20.99,108.00 16.66,105.50 12.33,108.00 12.33,113.00 16.66,115.50 20.99,113.00" fill="#c8a000" stroke="#c8a000" stroke-width="1"/>
<polygon points="25.32,115.50 20.99,113.00 16.66,115.50 16.66,120.50 20.99,123.00 25.32,120.50" fill="#138a13" stroke="#138a13" stroke-width="1"/>
<polygon points="29.65,123.00 25.32,120.50 20.99,123.00 20.99,128.00 25.32,130.50 29.65,128.00" fill="#c8a000" stroke="#c8a000" stroke-width="1"/>
<polygon points="33.98,130.50 29.65,128.00 25.32,130.50 25.32,135.50 29.65,138.00 33.98,135.50" fill="#c8a000" stroke="#c8a000" stroke-width="1"/>
<polygon points="38.31,138.00 33.98,135.50 29.65,138.00 29.65,143.00 33.98,145.50 38.31,143.00" fill="#138a13" stroke="#138a13" stroke-width="1"/>
<polygon points="46.97,153.00 42.64,150.50 38.31,153.00 38.31,158.00 42.64,160.50 46.97,158.00" fill="#d11c24" stroke="#d11c24" stroke-width="1"/>
<polygon points="51.30,160.50 46.97,158.00 42.64,160.50 42.64,165.50 46.97,168.00 51.30,165.50" fill="#138a13" stroke="#138a13" stroke-width="1"/>
<polygon points="55.63,168.00 51.30,165.50 46.97,168.00 46.97,173.00 51.30,175.50 55.63,173.00" fill="#000000" stroke="#000000" stroke-width="1"/>
<polygon points="59.96,175.50 55.63,173.00 51.30,175.50 51.30,180.50 55.63,183.00 59.96,180.50" fill="#d11c24" stroke="#d11c24" stroke-width="1"/>
<polygon points="64.29,183.00 59.96,180.50 55.63,183.00 55.63,188.00 59.96,190.50 64.29,188.00" fill="#138a13" stroke="#138a13" stroke-width="1"/>
<polygon points="68.62,190.50 64.29,188.00 59.96,190.50 59.96,195.50 64.29,198.00 68.62,195.50" fill="#000000" stroke="#000000" stroke-width="1"/>
<polygon points="77.28,190.50 72.95,188.00 68.62,190.50 68.62,195.50 72.95,198.00 77.28,195.50" fill="#138a13" stroke="#138a13" stroke-width="1"/>
<polygon points="85.94,190.50 81.61,188.00 77.28,190.50 77.28,195.50 81.61,198.00 85.94,195.50" fill="#d11c24" stroke="#d11c24" stroke-width="1"/>
<polygon points="94.60,190.50 90.27,188.00 85.94,190.50 85.94,195.50 90.27,198.00 94.60,195.50" fill="#000000" stroke="#000000" stroke-width="1"/>
<polygon points="103.26,190.50 98.93,188.00 94.60,190.50 94.60,195.50 98.93,198.00 103.26,195.50" fill="#138a13" stroke="#138a13" stroke-width="1"/>
<polygon points="111.92,190.50 107.59,188.00 103.26,190.50 103.26,195.50 107.59,198.00 111.92,195.50" fill="#c8a000" stroke="#c8a000" stroke-width="1"/>
<polygon points="120.58,190.50 116.25,188.00 111.92,190.50 111.92,195.50 116.25,198.00 120.58,195.50" fill="#000000" stroke="#000000" stroke-width="1"/>
<polygon points="129.24,190.50 124.91,188.00 120.58,190.50 120.58,195.50 124.91,198.00 129.24,195.50" fill="#138a13" stroke="#138a13" stroke-width="1"/>
<polygon points="137.90,190.50 133.57,188.00 129.24,190.50 129.24,195.50 133.57,198.00 137.90,195.50" fill="#c8a000" stroke="#c8a000" stroke-width="1"/>
<polygon points="146.56,190.50 142.23,188.00 137.90,190.50 137.90,195.50 142.23,198.00 146.56,195.50" fill="#d11c24" stroke="#d11c24" stroke-width="1"/>
<polygon points="155.22,190.50 150.89,188.00 146.56,190.50 146.56,195.50 150.89,198.00 155.22,195.50" fill="#138a13" stroke="#138a13" stroke-width="1"/>
<polygon points="163.88,190.50 159.55,188.00 155.22,190.50 155.22,195.50 159.55,198.00 163.88,195.50" fill="#c8a000" stroke="#c8a000" stroke-width="1"/>
<polygon points="172.54,190.50 168.21,188.00 163.88,190.50 163.88,195.50 168.21,198.00 172.54,195.50" fill="#d11c24" stroke="#d11c24" stroke-width="1"/>
<polygon points="176.87,183.00 172.54,180.50 168.21,183.00 168.21,188.00 172.54,190.50 176.87,188.00" fill="#c8a000" stroke="#c8a000" stroke-width="1"/>
<polygon points="181.21,175.50 176.87,173.00 172.54,175.50 172.54,180.50 176.87,183.00 181.21,180.50" fill="#138a13" stroke="#138a13" stroke-width="1"/>
<polygon points="185.54,168.00 181.21,165.50 176.87,168.00 176.87,173.00 181.21,175.50 185.54,173.00" fill="#d11c24" stroke="#d11c24" stroke-width="1"/>
<polygon points="189.87,160.50 185.54,158.00 181.21,160.50 181.21,165.50 185.54,168.00 189.87,165.50" fill="#c8a000" stroke="#c8a000" stroke-width="1"/>
<polygon points="194.20,153.00 189.87,150.50 185.54,153.00 185.54,158.00 189.87,160.50 194.20,158.00" fill="#138a13" stroke="#138a13" stroke-width="1"/>
<polygon points="202.86,138.00 198.53,135.50 194.20,138.00 194.20,143.00 198.53,145.50 202.86,143.00" fill="#d11c24" stroke="#d11c24" stroke-width="1"/>
<polygon points="207.19,130.50 202.86,128.00 198.53,130.50 198.53,135.50 202.86,138.00 207.19,135.50" fill="#c8a000" stroke="#c8a000" stroke-width="1"/>
<polygon points="211.52,123.00 207.19,120.50 202.86,123.00 202.86,128.00 207.19,130.50 211.52,128.00" fill="#000000" stroke="#000000" stroke-width="1"/>
<polygon points="215.85,115.50 211.52,113.00 207.19,115.50 207.19,120.50 211.52,123.00 215.85,120.50" fill="#d11c24" stroke="#d11c24" stroke-width="1"/>
<polygon points="220.18,108.00 215.85,105.50 211.52,108.00 211.52,113.00 215.85,115.50 220.18,113.00" fill="#c8a000" stroke="#c8a000" stroke-width="1"/>
<polygon points="224.51,100.50 220.18,98.00 215.85,100.50 215.85,105.50 220.18,108.00 224.51,105.50" fill="#000000" stroke="#000000" stroke-width="1"/>
</svg>